<svg width="56" height="56" viewBox="0 0 56 56" fill="none" xmlns="http://www.w3.org/2000/svg">
<rect x="0.5" y="0.53125" width="55" height="55" rx="27.5" fill="#F3F4F6"/>
<path d="M27.9993 21.4016C28.6639 20.8057 29.4259 20.4133 30.2852 20.2242C31.1446 20.0352 31.9925 20.0552 32.829 20.2844C33.6998 20.525 34.4532 20.9633 35.0891 21.5992C35.7251 22.2352 36.1634 22.9885 36.404 23.8594C36.6331 24.6958 36.6532 25.5409 36.4641 26.3945C36.2751 27.2482 35.8826 28.013 35.2868 28.6891L27.9993 35.9766L20.7118 28.6891C20.116 28.013 19.7235 27.2482 19.5344 26.3945C19.3454 25.5409 19.3654 24.6958 19.5946 23.8594C19.8352 22.9885 20.2764 22.2352 20.918 21.5992C21.5597 20.9633 22.3102 20.525 23.1696 20.2844C24.0061 20.0552 24.854 20.0352 25.7134 20.2242C26.5727 20.4133 27.3347 20.8057 27.9993 21.4016ZM33.8602 22.8109C33.4363 22.387 32.9436 22.0977 32.3821 21.943C31.8206 21.7883 31.2535 21.774 30.6805 21.9C30.1076 22.026 29.5977 22.2896 29.1509 22.6906L27.9993 23.7219L26.8477 22.6906C26.4123 22.2896 25.9053 22.026 25.3266 21.9C24.748 21.774 24.1779 21.7883 23.6165 21.943C23.055 22.0977 22.5623 22.387 22.1384 22.8109C21.7144 23.2349 21.4222 23.7276 21.2618 24.2891C21.1014 24.8505 21.0813 25.4148 21.2016 25.982C21.3219 26.5492 21.5769 27.0562 21.9665 27.5031L27.9993 33.5531L34.0321 27.5031C34.4217 27.0562 34.6766 26.5492 34.797 25.982C34.9173 25.4148 34.8972 24.8505 34.7368 24.2891C34.5764 23.7276 34.2842 23.2349 33.8602 22.8109Z" fill="#9CA3AF"/>
</svg>
