<svg width="90" height="91" viewBox="0 0 90 91" fill="none" xmlns="http://www.w3.org/2000/svg">
<rect y="0.28125" width="90" height="90" rx="8" fill="#F92596" fill-opacity="0.15"/>
<path d="M21.3672 37.5664C21.5625 37.6315 21.766 37.6885 21.9775 37.7373C22.1891 37.7861 22.4089 37.8105 22.6367 37.8105C22.7669 37.8105 22.9053 37.8024 23.0518 37.7861C23.1982 37.7699 23.3366 37.7454 23.4668 37.7129C24.3132 37.5501 24.9479 37.1758 25.3711 36.5898C25.7943 36.0039 25.9245 35.3366 25.7617 34.5879L23.9062 26.1406L31.6699 24.4316L33.0371 30.7305C32.8418 30.6654 32.6221 30.6409 32.3779 30.6572C32.1338 30.6735 31.8652 30.6979 31.5723 30.7305C30.7259 30.9258 30.0911 31.3083 29.668 31.8779C29.2448 32.4476 29.1146 33.0905 29.2773 33.8066C29.4076 34.4251 29.7087 34.9134 30.1807 35.2715C30.6527 35.6296 31.2142 35.8086 31.8652 35.8086C31.9954 35.8086 32.1257 35.8005 32.2559 35.7842C32.3861 35.7679 32.5163 35.7435 32.6465 35.7109C33.4928 35.5482 34.1276 35.1738 34.5508 34.5879C34.974 34.002 35.1042 33.3346 34.9414 32.5859L32.5 21.3066C32.4349 20.9486 32.2477 20.6719 31.9385 20.4766C31.6292 20.2812 31.2956 20.2324 30.9375 20.3301L22.8809 22.0879C22.7832 22.0879 22.6937 22.1042 22.6123 22.1367C22.5309 22.1693 22.4577 22.2181 22.3926 22.2832C22.3275 22.3158 22.2624 22.3646 22.1973 22.4297C22.1322 22.4948 22.0833 22.5599 22.0508 22.625C22.0182 22.7227 21.9857 22.804 21.9531 22.8691C21.9206 22.9342 21.888 23.0156 21.8555 23.1133C21.8555 23.2109 21.8555 23.3005 21.8555 23.3818C21.8555 23.4632 21.8555 23.5365 21.8555 23.6016L23.8574 32.7324C23.6296 32.6673 23.3936 32.6429 23.1494 32.6592C22.9053 32.6755 22.653 32.7161 22.3926 32.7812C22.002 32.8464 21.652 32.9603 21.3428 33.123C21.0335 33.2858 20.7812 33.4974 20.5859 33.7578C20.3255 34.0508 20.1546 34.3763 20.0732 34.7344C19.9919 35.0924 19.9837 35.4668 20.0488 35.8574C20.1465 36.2155 20.3092 36.5492 20.5371 36.8584C20.765 37.1676 21.0417 37.4036 21.3672 37.5664ZM32.3535 34.2949C32.1908 34.3275 31.8978 34.3356 31.4746 34.3193C31.0514 34.3031 30.791 34.0345 30.6934 33.5137C30.5957 33.0579 30.7096 32.7406 31.0352 32.5615C31.3607 32.3825 31.6536 32.2604 31.9141 32.1953C32.0117 32.1628 32.1012 32.1383 32.1826 32.1221C32.264 32.1058 32.3535 32.0977 32.4512 32.0977C32.7116 32.0977 32.9395 32.1546 33.1348 32.2686C33.3301 32.3825 33.4603 32.5859 33.5254 32.8789C33.623 33.3997 33.4928 33.7578 33.1348 33.9531C32.7767 34.1484 32.5163 34.2624 32.3535 34.2949ZM31.084 21.7949L31.377 23.0156L23.6133 24.6758L23.3203 23.4551L31.084 21.7949ZM21.6602 34.7344C21.7904 34.6042 21.945 34.4902 22.124 34.3926C22.3031 34.2949 22.4902 34.2298 22.6855 34.1973C22.7832 34.1647 22.8809 34.1403 22.9785 34.124C23.0762 34.1077 23.1738 34.0996 23.2715 34.0996C23.4993 34.0996 23.7191 34.1566 23.9307 34.2705C24.1423 34.3844 24.2806 34.5879 24.3457 34.8809C24.4434 35.4017 24.3132 35.7598 23.9551 35.9551C23.597 36.1504 23.3366 36.2643 23.1738 36.2969C22.946 36.362 22.7344 36.3864 22.5391 36.3701C22.3438 36.3538 22.1647 36.3132 22.002 36.248C21.8717 36.1829 21.766 36.0853 21.6846 35.9551C21.6032 35.8249 21.5462 35.6784 21.5137 35.5156C21.4486 35.3529 21.4323 35.2064 21.4648 35.0762C21.4974 34.946 21.5625 34.832 21.6602 34.7344ZM69.9023 56.9023C69.8698 56.8372 69.8291 56.7721 69.7803 56.707C69.7314 56.6419 69.6745 56.5768 69.6094 56.5117C69.5443 56.4466 69.471 56.3896 69.3896 56.3408C69.3083 56.292 69.235 56.2513 69.1699 56.2188L61.4551 53.2402C61.1296 53.11 60.804 53.1182 60.4785 53.2646C60.153 53.4111 59.9251 53.6471 59.7949 53.9727L56.377 62.6641C56.2467 62.5013 56.0758 62.3548 55.8643 62.2246C55.6527 62.0944 55.4167 61.9805 55.1562 61.8828C54.7982 61.7526 54.4401 61.6712 54.082 61.6387C53.724 61.6061 53.3984 61.6224 53.1055 61.6875C52.7474 61.7852 52.43 61.9642 52.1533 62.2246C51.8766 62.485 51.6569 62.7943 51.4941 63.1523C51.3639 63.543 51.3151 63.9173 51.3477 64.2754C51.3802 64.6335 51.4941 64.9753 51.6895 65.3008C51.8522 65.5938 52.0719 65.8542 52.3486 66.082C52.6253 66.3099 52.9427 66.4889 53.3008 66.6191C53.5286 66.7168 53.7484 66.7819 53.96 66.8145C54.1715 66.847 54.375 66.8633 54.5703 66.8633C55.1237 66.8633 55.612 66.7249 56.0352 66.4482C56.4583 66.1715 56.7676 65.7728 56.9629 65.252L60.0879 57.1953L67.5098 60.0762L65.166 66.082C65.0033 65.9193 64.8161 65.7728 64.6045 65.6426C64.3929 65.5124 64.1732 65.3984 63.9453 65.3008C63.1315 64.9753 62.3828 64.9264 61.6992 65.1543C61.0156 65.3822 60.5436 65.8542 60.2832 66.5703C60.153 66.9284 60.096 67.2946 60.1123 67.6689C60.1286 68.0433 60.2344 68.3932 60.4297 68.7188C60.5924 69.0117 60.8122 69.264 61.0889 69.4756C61.3656 69.6872 61.6992 69.8743 62.0898 70.0371C62.2852 70.1022 62.4967 70.1592 62.7246 70.208C62.9525 70.2568 63.1641 70.2812 63.3594 70.2812C63.8802 70.2812 64.3522 70.1429 64.7754 69.8662C65.1986 69.5895 65.5241 69.1908 65.752 68.6699L69.9023 57.9277C69.9349 57.8301 69.9593 57.7406 69.9756 57.6592C69.9919 57.5778 70 57.5046 70 57.4395C70 57.3418 69.9919 57.2523 69.9756 57.1709C69.9593 57.0895 69.9349 57 69.9023 56.9023ZM53.8379 65.252C53.61 65.1868 53.4229 65.0892 53.2764 64.959C53.1299 64.8288 53.0078 64.6986 52.9102 64.5684C52.8451 64.4382 52.8044 64.2998 52.7881 64.1533C52.7718 64.0068 52.7962 63.8522 52.8613 63.6895C52.9264 63.5267 53.0078 63.3965 53.1055 63.2988C53.2031 63.2012 53.3333 63.1361 53.4961 63.1035C53.5286 63.1035 53.5775 63.0954 53.6426 63.0791C53.7077 63.0628 53.7565 63.0547 53.7891 63.0547C53.9193 63.0547 54.0576 63.071 54.2041 63.1035C54.3506 63.1361 54.4889 63.1849 54.6191 63.25C54.847 63.3477 55.0423 63.4535 55.2051 63.5674C55.3678 63.6813 55.4818 63.8034 55.5469 63.9336C55.612 64.0312 55.6527 64.1533 55.6689 64.2998C55.6852 64.4463 55.6608 64.6009 55.5957 64.7637C55.4004 65.2194 55.0993 65.431 54.6924 65.3984C54.2855 65.3659 54.0006 65.3171 53.8379 65.252ZM60.625 55.8281L61.0645 54.6562L68.4863 57.5371L68.0469 58.709L60.625 55.8281ZM62.627 68.6699C62.3991 68.5723 62.2119 68.4665 62.0654 68.3525C61.9189 68.2386 61.7969 68.1165 61.6992 67.9863C61.6341 67.8561 61.5934 67.7178 61.5771 67.5713C61.5609 67.4248 61.5853 67.2702 61.6504 67.1074C61.748 66.8796 61.8783 66.7168 62.041 66.6191C62.2038 66.5215 62.3828 66.4727 62.5781 66.4727C62.7409 66.4727 62.8874 66.4889 63.0176 66.5215C63.1478 66.554 63.278 66.6029 63.4082 66.668C63.6035 66.7331 63.7826 66.8226 63.9453 66.9365C64.1081 67.0505 64.2383 67.1725 64.3359 67.3027C64.401 67.4329 64.4336 67.5713 64.4336 67.7178C64.4336 67.8643 64.4173 68.0026 64.3848 68.1328C64.1895 68.6211 63.8802 68.849 63.457 68.8164C63.0339 68.7839 62.7572 68.735 62.627 68.6699ZM41.5332 66.9121C40.3939 67.7585 39.1406 68.3118 37.7734 68.5723C36.4062 68.8652 35.0065 68.8978 33.5742 68.6699C32.1419 68.4421 30.7422 67.9701 29.375 67.2539C27.9753 66.5378 26.7057 65.5938 25.5664 64.4219C24.2318 63.0547 23.2064 61.5166 22.4902 59.8076C21.7741 58.0986 21.4323 56.3652 21.4648 54.6074C21.4974 53.1751 21.7741 51.8486 22.2949 50.6279C22.8158 49.4072 23.5482 48.3411 24.4922 47.4297C25.1432 46.8112 25.8919 46.2904 26.7383 45.8672C27.5846 45.444 28.4798 45.151 29.4238 44.9883C30.7259 44.7279 31.9385 44.2965 33.0615 43.6943C34.1846 43.0921 35.1855 42.319 36.0645 41.375C36.097 41.3424 36.1214 41.3018 36.1377 41.2529C36.154 41.2041 36.1784 41.1634 36.2109 41.1309C36.2109 41.0658 36.2191 41.0169 36.2354 40.9844C36.2516 40.9518 36.2598 40.903 36.2598 40.8379C36.2272 40.8053 36.2109 40.7646 36.2109 40.7158C36.2109 40.667 36.1947 40.61 36.1621 40.5449C36.1621 40.5124 36.1458 40.4798 36.1133 40.4473C36.0807 40.4147 36.0482 40.3822 36.0156 40.3496C35.9831 40.3171 35.9424 40.2845 35.8936 40.252C35.8447 40.2194 35.804 40.2031 35.7715 40.2031C35.7064 40.1706 35.6494 40.1543 35.6006 40.1543C35.5518 40.1543 35.5111 40.1543 35.4785 40.1543C35.4134 40.1543 35.3646 40.1543 35.332 40.1543C35.2995 40.1543 35.2507 40.1706 35.1855 40.2031C35.153 40.2357 35.1204 40.2601 35.0879 40.2764C35.0553 40.2926 35.0228 40.3171 34.9902 40.3496C34.209 41.196 33.3301 41.8877 32.3535 42.4248C31.377 42.9619 30.319 43.3281 29.1797 43.5234C28.0729 43.7188 27.0394 44.0605 26.0791 44.5488C25.1188 45.0371 24.248 45.6556 23.4668 46.4043C22.3926 47.4134 21.5544 48.626 20.9521 50.042C20.3499 51.458 20.0326 52.9635 20 54.5586C19.9674 56.5117 20.3418 58.4404 21.123 60.3447C21.9043 62.249 23.0436 63.9499 24.541 65.4473C26.071 67.0423 27.7962 68.2467 29.7168 69.0605C31.6374 69.8743 33.5579 70.2812 35.4785 70.2812C36.7155 70.2812 37.9199 70.1022 39.0918 69.7441C40.2637 69.3861 41.3542 68.849 42.3633 68.1328C42.4609 68.0677 42.5342 67.9945 42.583 67.9131C42.6318 67.8317 42.6562 67.7422 42.6562 67.6445C42.6562 67.5469 42.6481 67.4492 42.6318 67.3516C42.6156 67.2539 42.5749 67.1725 42.5098 67.1074C42.4772 67.0098 42.4202 66.9365 42.3389 66.8877C42.2575 66.8389 42.168 66.8145 42.0703 66.8145C41.9727 66.7819 41.875 66.7819 41.7773 66.8145C41.6797 66.847 41.5983 66.8796 41.5332 66.9121ZM54.1797 52.2148C54.9284 51.4336 55.4818 50.5628 55.8398 49.6025C56.1979 48.6423 56.3444 47.6087 56.2793 46.502C56.2142 45.623 56.0189 44.7279 55.6934 43.8164C55.3678 42.9049 54.9284 41.9935 54.375 41.082L59.0137 36.4434C59.0462 36.4108 59.0788 36.3701 59.1113 36.3213C59.1439 36.2725 59.1764 36.2318 59.209 36.1992C59.209 36.1341 59.2171 36.0771 59.2334 36.0283C59.2497 35.9795 59.2578 35.9388 59.2578 35.9062C59.2578 35.8737 59.2497 35.833 59.2334 35.7842C59.2171 35.7354 59.209 35.6784 59.209 35.6133C59.1764 35.5807 59.1439 35.54 59.1113 35.4912C59.0788 35.4424 59.0462 35.4017 59.0137 35.3691C58.9811 35.3366 58.9486 35.3122 58.916 35.2959C58.8835 35.2796 58.8346 35.2552 58.7695 35.2227C58.737 35.2227 58.6963 35.2145 58.6475 35.1982C58.5986 35.182 58.5579 35.1738 58.5254 35.1738C58.4603 35.1738 58.4033 35.182 58.3545 35.1982C58.3057 35.2145 58.265 35.2227 58.2324 35.2227C58.1999 35.2552 58.1592 35.2796 58.1104 35.2959C58.0615 35.3122 58.0208 35.3366 57.9883 35.3691L45.0488 48.3574C44.8861 47.9993 44.6989 47.6657 44.4873 47.3564C44.2757 47.0472 44.0397 46.7624 43.7793 46.502C43.5189 46.209 43.2341 45.9567 42.9248 45.7451C42.6156 45.5335 42.2819 45.3626 41.9238 45.2324L57.1582 29.998L60.2832 33.0742L60.1855 33.1719C60.153 33.237 60.1204 33.3021 60.0879 33.3672C60.0553 33.4323 60.0228 33.4974 59.9902 33.5625C59.9902 33.6276 59.9902 33.6927 59.9902 33.7578C59.9902 33.8229 60.0065 33.9043 60.0391 34.002C60.0716 34.0671 60.1123 34.124 60.1611 34.1729C60.21 34.2217 60.2669 34.2624 60.332 34.2949C60.3646 34.3275 60.4215 34.36 60.5029 34.3926C60.5843 34.4251 60.6576 34.4414 60.7227 34.4414C60.8203 34.4414 60.9098 34.4251 60.9912 34.3926C61.0726 34.36 61.1621 34.2949 61.2598 34.1973L61.4062 34.0508C61.4714 34.0508 61.5365 34.0589 61.6016 34.0752C61.6667 34.0915 61.7318 34.0996 61.7969 34.0996C61.8945 34.0996 61.984 34.0833 62.0654 34.0508C62.1468 34.0182 62.2201 33.9857 62.2852 33.9531C62.3828 33.9206 62.4642 33.8799 62.5293 33.8311C62.5944 33.7822 62.6432 33.7253 62.6758 33.6602L63.457 32.7812L64.2871 33.6113C64.3197 33.6439 64.3604 33.6764 64.4092 33.709C64.458 33.7415 64.4987 33.7741 64.5312 33.8066C64.5964 33.8066 64.6452 33.8148 64.6777 33.8311C64.7103 33.8473 64.7591 33.8555 64.8242 33.8555C64.9219 33.8555 65.0114 33.8311 65.0928 33.7822C65.1742 33.7334 65.2637 33.6764 65.3613 33.6113C65.3939 33.5788 65.4183 33.5462 65.4346 33.5137C65.4508 33.4811 65.4753 33.4323 65.5078 33.3672C65.5078 33.3346 65.5159 33.2939 65.5322 33.2451C65.5485 33.1963 65.5566 33.1556 65.5566 33.123C65.5566 33.0579 65.5485 33.001 65.5322 32.9521C65.5159 32.9033 65.5078 32.8626 65.5078 32.8301C65.4753 32.7975 65.4508 32.7568 65.4346 32.708C65.4183 32.6592 65.3939 32.6185 65.3613 32.5859L64.4336 31.707L65.6543 30.291L66.5332 31.1699C66.5658 31.2025 66.6064 31.235 66.6553 31.2676C66.7041 31.3001 66.7448 31.3164 66.7773 31.3164C66.8099 31.349 66.8506 31.3652 66.8994 31.3652C66.9482 31.3652 67.0052 31.3652 67.0703 31.3652C67.1354 31.3652 67.2005 31.3571 67.2656 31.3408C67.3307 31.3245 67.3958 31.3001 67.4609 31.2676C67.526 31.235 67.583 31.1862 67.6318 31.1211C67.6807 31.056 67.7051 30.9909 67.7051 30.9258C67.7376 30.8607 67.762 30.7956 67.7783 30.7305C67.7946 30.6654 67.7865 30.584 67.7539 30.4863C67.7539 30.4212 67.7376 30.3561 67.7051 30.291C67.6725 30.2259 67.6237 30.1771 67.5586 30.1445L66.6309 29.2168L67.8516 27.8008L68.4863 28.4355C68.5189 28.4681 68.5514 28.5007 68.584 28.5332C68.6165 28.5658 68.6654 28.5983 68.7305 28.6309C68.763 28.6309 68.8037 28.639 68.8525 28.6553C68.9014 28.6716 68.9421 28.6797 68.9746 28.6797C69.0723 28.6797 69.1536 28.6634 69.2188 28.6309C69.2839 28.5983 69.349 28.5658 69.4141 28.5332C69.4792 28.5007 69.528 28.46 69.5605 28.4111C69.5931 28.3623 69.6256 28.2891 69.6582 28.1914C69.6908 28.1263 69.7152 28.0612 69.7314 27.9961C69.7477 27.931 69.7396 27.8659 69.707 27.8008C69.707 27.7357 69.6908 27.6706 69.6582 27.6055C69.6256 27.5404 69.5768 27.4753 69.5117 27.4102L68.8281 26.7266L69.707 25.7012C69.9023 25.4733 70 25.1966 70 24.8711C70 24.5456 69.8861 24.2689 69.6582 24.041L66.2402 20.623C66.0124 20.3952 65.7357 20.2812 65.4102 20.2812C65.0846 20.2812 64.8079 20.3789 64.5801 20.5742L63.5547 21.4531L62.8711 20.7695C62.806 20.7044 62.7246 20.6556 62.627 20.623C62.5293 20.5905 62.4316 20.5742 62.334 20.5742C62.2363 20.5742 62.1468 20.5905 62.0654 20.623C61.984 20.6556 61.9108 20.7044 61.8457 20.7695C61.7806 20.8346 61.7236 20.916 61.6748 21.0137C61.626 21.1113 61.6016 21.209 61.6016 21.3066C61.6016 21.4043 61.626 21.4938 61.6748 21.5752C61.7236 21.6566 61.7806 21.7298 61.8457 21.7949L62.4805 22.4297L61.0645 23.6504L60.1367 22.7227C60.1042 22.6901 60.0635 22.6576 60.0146 22.625C59.9658 22.5924 59.9251 22.5599 59.8926 22.5273C59.86 22.5273 59.8193 22.5192 59.7705 22.5029C59.7217 22.4867 59.6647 22.4785 59.5996 22.4785C59.5671 22.4785 59.5264 22.4867 59.4775 22.5029C59.4287 22.5192 59.388 22.5273 59.3555 22.5273C59.2904 22.5599 59.2415 22.5924 59.209 22.625C59.1764 22.6576 59.1439 22.6901 59.1113 22.7227C59.0788 22.7552 59.0462 22.7878 59.0137 22.8203C58.9811 22.8529 58.9648 22.8854 58.9648 22.918C58.9323 22.9831 58.9079 23.04 58.8916 23.0889C58.8753 23.1377 58.8672 23.1784 58.8672 23.2109C58.8672 23.276 58.8753 23.333 58.8916 23.3818C58.9079 23.4307 58.9323 23.4714 58.9648 23.5039C58.9648 23.5365 58.9811 23.5771 59.0137 23.626C59.0462 23.6748 59.0788 23.7155 59.1113 23.748L59.9902 24.627L58.5742 25.8477L57.6953 24.9199C57.6628 24.8874 57.6221 24.863 57.5732 24.8467C57.5244 24.8304 57.4837 24.806 57.4512 24.7734C57.4186 24.7734 57.3779 24.7653 57.3291 24.749C57.2803 24.7327 57.2233 24.7246 57.1582 24.7246C57.1256 24.7246 57.085 24.7327 57.0361 24.749C56.9873 24.7653 56.9466 24.7734 56.9141 24.7734C56.849 24.806 56.8001 24.8304 56.7676 24.8467C56.735 24.863 56.7025 24.8874 56.6699 24.9199C56.6374 24.9525 56.6048 24.9932 56.5723 25.042C56.5397 25.0908 56.5072 25.1315 56.4746 25.1641C56.4746 25.2292 56.4665 25.2861 56.4502 25.335C56.4339 25.3838 56.4258 25.4245 56.4258 25.457C56.4258 25.5221 56.4339 25.571 56.4502 25.6035C56.4665 25.6361 56.4746 25.6849 56.4746 25.75C56.5072 25.7826 56.5397 25.8232 56.5723 25.8721C56.6048 25.9209 56.6374 25.9616 56.6699 25.9941L57.5 26.8242L56.6211 27.6055C56.556 27.638 56.499 27.6868 56.4502 27.752C56.4014 27.8171 56.3607 27.8984 56.3281 27.9961C56.2956 28.0612 56.263 28.1344 56.2305 28.2158C56.1979 28.2972 56.1816 28.3704 56.1816 28.4355C56.1816 28.5332 56.1898 28.6064 56.2061 28.6553C56.2223 28.7041 56.2305 28.7611 56.2305 28.8262L49.1992 35.9062C47.1159 34.5716 45.1058 33.9043 43.1689 33.9043C41.2321 33.9043 39.5964 34.5716 38.2617 35.9062C37.9036 36.2643 37.5944 36.6061 37.334 36.9316C37.0736 37.2572 36.8457 37.599 36.6504 37.957C36.6178 37.9896 36.5934 38.0303 36.5771 38.0791C36.5609 38.1279 36.5527 38.1686 36.5527 38.2012C36.5527 38.2663 36.5527 38.3232 36.5527 38.3721C36.5527 38.4209 36.569 38.4616 36.6016 38.4941C36.6016 38.5592 36.6097 38.6081 36.626 38.6406C36.6423 38.6732 36.6667 38.722 36.6992 38.7871C36.7318 38.8197 36.7643 38.8522 36.7969 38.8848C36.8294 38.9173 36.8783 38.9336 36.9434 38.9336C36.9759 38.9661 37.0166 38.9906 37.0654 39.0068C37.1143 39.0231 37.1549 39.0312 37.1875 39.0312C37.2526 39.0312 37.3096 39.0312 37.3584 39.0312C37.4072 39.0312 37.4479 39.0312 37.4805 39.0312C37.513 38.9987 37.5537 38.9743 37.6025 38.958C37.6514 38.9417 37.6921 38.9173 37.7246 38.8848C37.7572 38.8522 37.7897 38.8197 37.8223 38.7871C37.8548 38.7546 37.8874 38.722 37.9199 38.6895C38.0827 38.3965 38.278 38.1035 38.5059 37.8105C38.7337 37.5176 38.9941 37.2246 39.2871 36.9316C40.752 35.4993 42.347 35.0029 44.0723 35.4424C45.7975 35.8818 47.1484 36.3945 48.125 36.9805L40.2637 44.8418C40.166 44.8418 40.0846 44.8418 40.0195 44.8418C39.9544 44.8418 39.8893 44.8418 39.8242 44.8418C39.0755 44.8418 38.3594 44.9801 37.6758 45.2568C36.9922 45.5335 36.39 45.9486 35.8691 46.502C35.3158 47.0228 34.9007 47.625 34.624 48.3086C34.3473 48.9922 34.209 49.7083 34.209 50.457C34.209 51.2057 34.3473 51.9219 34.624 52.6055C34.9007 53.2891 35.3158 53.8913 35.8691 54.4121C36.39 54.9329 36.9922 55.3398 37.6758 55.6328C38.3594 55.9258 39.0755 56.0723 39.8242 56.0723C40.5729 56.0723 41.2891 55.9258 41.9727 55.6328C42.6562 55.3398 43.2585 54.9329 43.7793 54.4121C44.3327 53.8913 44.7477 53.2891 45.0244 52.6055C45.3011 51.9219 45.4395 51.2057 45.4395 50.457C45.4395 50.3919 45.4395 50.3187 45.4395 50.2373C45.4395 50.1559 45.4395 50.0827 45.4395 50.0176L53.3008 42.1562C53.8542 43.1328 54.3424 44.5 54.7656 46.2578C55.1888 48.0156 54.6354 49.6595 53.1055 51.1895C52.8776 51.4173 52.6253 51.637 52.3486 51.8486C52.0719 52.0602 51.7871 52.2474 51.4941 52.4102C49.834 53.3216 48.4668 54.5016 47.3926 55.9502C46.3184 57.3988 45.6185 59.0182 45.293 60.8086C45.1628 61.5898 44.9512 62.3141 44.6582 62.9814C44.3652 63.6488 43.9909 64.2917 43.5352 64.9102C43.4375 65.0729 43.4049 65.252 43.4375 65.4473C43.4701 65.6426 43.5677 65.8053 43.7305 65.9355C43.7956 65.9681 43.8607 66.0007 43.9258 66.0332C43.9909 66.0658 44.0723 66.082 44.1699 66.082C44.2025 66.082 44.2513 66.0739 44.3164 66.0576C44.3815 66.0413 44.4303 66.0169 44.4629 65.9844C44.528 65.9518 44.585 65.9193 44.6338 65.8867C44.6826 65.8542 44.7233 65.8053 44.7559 65.7402C45.2441 65.0566 45.6592 64.3242 46.001 63.543C46.3428 62.7617 46.5788 61.9479 46.709 61.1016C47.0345 59.5065 47.6611 58.0742 48.5889 56.8047C49.5166 55.5352 50.7129 54.4935 52.1777 53.6797C52.5358 53.4844 52.8857 53.2646 53.2275 53.0205C53.5693 52.7764 53.8867 52.5078 54.1797 52.2148ZM65.3613 21.8438L68.4375 24.9199L61.748 32.4883L57.793 28.5332L65.3613 21.8438ZM42.7539 53.3867C42.3633 53.7773 41.9157 54.0785 41.4111 54.29C40.9066 54.5016 40.3776 54.6074 39.8242 54.6074C39.2708 54.6074 38.7419 54.5016 38.2373 54.29C37.7327 54.0785 37.2852 53.7773 36.8945 53.3867C36.5039 52.9961 36.2028 52.5485 35.9912 52.0439C35.7796 51.5394 35.6738 51.0104 35.6738 50.457C35.6738 49.9036 35.7796 49.3747 35.9912 48.8701C36.2028 48.3656 36.5039 47.918 36.8945 47.5273C37.2852 47.1367 37.7327 46.8356 38.2373 46.624C38.7419 46.4124 39.2708 46.3066 39.8242 46.3066C40.3776 46.3066 40.9066 46.4124 41.4111 46.624C41.9157 46.8356 42.3633 47.1367 42.7539 47.5273C43.1445 47.918 43.4456 48.3656 43.6572 48.8701C43.8688 49.3747 43.9746 49.9036 43.9746 50.457C43.9746 51.0104 43.8688 51.5394 43.6572 52.0439C43.4456 52.5485 43.1445 52.9961 42.7539 53.3867ZM26.25 52.9961C25.7292 53.4844 25.4688 54.0785 25.4688 54.7783C25.4688 55.4782 25.7292 56.0723 26.25 56.5605L33.7207 64.0312C33.9486 64.2917 34.2253 64.4788 34.5508 64.5928C34.8763 64.7067 35.1855 64.7637 35.4785 64.7637C35.804 64.7637 36.1296 64.7067 36.4551 64.5928C36.7806 64.4788 37.0573 64.2917 37.2852 64.0312C37.7734 63.543 38.0176 62.9489 38.0176 62.249C38.0176 61.5492 37.7734 60.9551 37.2852 60.4668L29.8145 52.9961C29.5866 52.7357 29.318 52.5404 29.0088 52.4102C28.6995 52.2799 28.3659 52.2148 28.0078 52.2148C27.6823 52.2148 27.3649 52.2799 27.0557 52.4102C26.7464 52.5404 26.4779 52.7357 26.25 52.9961ZM36.2598 61.4922C36.4551 61.6875 36.5527 61.9398 36.5527 62.249C36.5527 62.5583 36.4551 62.8105 36.2598 63.0059C36.0645 63.2012 35.8122 63.2988 35.5029 63.2988C35.1937 63.2988 34.9414 63.2012 34.7461 63.0059L27.2754 55.5352C27.0475 55.3073 26.9336 55.0469 26.9336 54.7539C26.9336 54.4609 27.0475 54.2168 27.2754 54.0215C27.3079 53.9564 27.3568 53.9076 27.4219 53.875C27.487 53.8424 27.5521 53.8099 27.6172 53.7773C27.6823 53.7448 27.7474 53.7204 27.8125 53.7041C27.8776 53.6878 27.9427 53.6797 28.0078 53.6797C28.1706 53.6797 28.3171 53.7122 28.4473 53.7773C28.5775 53.8424 28.6914 53.9238 28.7891 54.0215L36.2598 61.4922ZM56.8164 35.7598C56.849 35.7598 56.8896 35.7516 56.9385 35.7354C56.9873 35.7191 57.0443 35.7109 57.1094 35.7109C57.1419 35.6784 57.1826 35.6458 57.2314 35.6133C57.2803 35.5807 57.321 35.5482 57.3535 35.5156C57.4837 35.3854 57.5488 35.2145 57.5488 35.0029C57.5488 34.7913 57.4837 34.6204 57.3535 34.4902L55.791 32.9277C55.6934 32.8626 55.6038 32.8138 55.5225 32.7812C55.4411 32.7487 55.3516 32.7324 55.2539 32.7324C55.1562 32.7324 55.0586 32.7487 54.9609 32.7812C54.8633 32.8138 54.7819 32.8626 54.7168 32.9277C54.6842 32.9603 54.6598 33.001 54.6436 33.0498C54.6273 33.0986 54.6029 33.1393 54.5703 33.1719C54.5703 33.2044 54.5622 33.2451 54.5459 33.2939C54.5296 33.3428 54.5215 33.3997 54.5215 33.4648C54.5215 33.4974 54.5296 33.5381 54.5459 33.5869C54.5622 33.6357 54.5703 33.6764 54.5703 33.709C54.6029 33.7741 54.6273 33.8229 54.6436 33.8555C54.6598 33.888 54.6842 33.9206 54.7168 33.9531L56.2793 35.5156C56.3118 35.5482 56.3525 35.5807 56.4014 35.6133C56.4502 35.6458 56.4909 35.6784 56.5234 35.7109C56.5885 35.7109 56.6455 35.7191 56.6943 35.7354C56.7432 35.7516 56.7839 35.7598 56.8164 35.7598ZM54.668 37.9082C54.7331 37.9082 54.7982 37.9001 54.8633 37.8838C54.9284 37.8675 54.9935 37.8268 55.0586 37.7617C55.1237 37.7292 55.1807 37.6885 55.2295 37.6396C55.2783 37.5908 55.319 37.5339 55.3516 37.4688C55.3516 37.4036 55.3597 37.3304 55.376 37.249C55.3923 37.1676 55.3841 37.0944 55.3516 37.0293C55.3516 36.9642 55.3353 36.8991 55.3027 36.834C55.2702 36.7689 55.2214 36.7038 55.1562 36.6387L53.5938 35.0762C53.5286 35.0111 53.4554 34.9622 53.374 34.9297C53.2926 34.8971 53.2031 34.8809 53.1055 34.8809C53.0078 34.8809 52.9102 34.8971 52.8125 34.9297C52.7148 34.9622 52.6335 35.0111 52.5684 35.0762C52.5358 35.1087 52.5033 35.1494 52.4707 35.1982C52.4381 35.2471 52.4219 35.2878 52.4219 35.3203C52.3893 35.3854 52.373 35.4424 52.373 35.4912C52.373 35.54 52.373 35.5807 52.373 35.6133C52.373 35.6458 52.373 35.6865 52.373 35.7354C52.373 35.7842 52.3893 35.8411 52.4219 35.9062C52.4219 35.9388 52.4381 35.9795 52.4707 36.0283C52.5033 36.0771 52.5358 36.1178 52.5684 36.1504L54.1309 37.7129C54.1634 37.7454 54.2041 37.7699 54.2529 37.7861C54.3018 37.8024 54.3424 37.8268 54.375 37.8594C54.4076 37.8594 54.4482 37.8675 54.4971 37.8838C54.5459 37.9001 54.6029 37.9082 54.668 37.9082ZM52.4707 40.0566C52.5684 40.0566 52.6497 40.0485 52.7148 40.0322C52.7799 40.016 52.8451 39.9915 52.9102 39.959C52.9753 39.9264 53.0241 39.8776 53.0566 39.8125C53.0892 39.7474 53.1217 39.6823 53.1543 39.6172C53.1868 39.5521 53.2031 39.487 53.2031 39.4219C53.2031 39.3568 53.2031 39.2754 53.2031 39.1777C53.2031 39.1126 53.1868 39.0475 53.1543 38.9824C53.1217 38.9173 53.0729 38.8685 53.0078 38.8359L51.4453 37.2734C51.4128 37.2409 51.3721 37.2083 51.3232 37.1758C51.2744 37.1432 51.2337 37.1107 51.2012 37.0781C51.1686 37.0781 51.1279 37.07 51.0791 37.0537C51.0303 37.0374 50.9733 37.0293 50.9082 37.0293C50.8757 37.0293 50.835 37.0374 50.7861 37.0537C50.7373 37.07 50.6966 37.0781 50.6641 37.0781C50.599 37.1107 50.5501 37.1432 50.5176 37.1758C50.485 37.2083 50.4525 37.2409 50.4199 37.2734C50.3874 37.306 50.3548 37.3385 50.3223 37.3711C50.2897 37.4036 50.2572 37.4525 50.2246 37.5176C50.2246 37.5501 50.2165 37.5908 50.2002 37.6396C50.1839 37.6885 50.1758 37.7292 50.1758 37.7617C50.1758 37.8268 50.1839 37.8838 50.2002 37.9326C50.2165 37.9814 50.2246 38.0221 50.2246 38.0547C50.2572 38.0872 50.2897 38.1279 50.3223 38.1768C50.3548 38.2256 50.3874 38.2663 50.4199 38.2988L51.9824 39.8613C52.015 39.8939 52.0475 39.9264 52.0801 39.959C52.1126 39.9915 52.1615 40.0078 52.2266 40.0078C52.2591 40.0404 52.2998 40.0566 52.3486 40.0566C52.3975 40.0566 52.4381 40.0566 52.4707 40.0566ZM50.3223 42.2539C50.3874 42.2539 50.4525 42.2376 50.5176 42.2051C50.5827 42.1725 50.6478 42.14 50.7129 42.1074C50.778 42.0749 50.835 42.026 50.8838 41.9609C50.9326 41.8958 50.9733 41.8307 51.0059 41.7656C51.0384 41.7005 51.0547 41.6354 51.0547 41.5703C51.0547 41.5052 51.0547 41.4401 51.0547 41.375C51.0221 41.3099 50.9896 41.2448 50.957 41.1797C50.9245 41.1146 50.8919 41.0495 50.8594 40.9844L49.2969 39.4219C49.2643 39.3893 49.2236 39.3568 49.1748 39.3242C49.126 39.2917 49.0853 39.2754 49.0527 39.2754C48.9876 39.2428 48.9307 39.2266 48.8818 39.2266C48.833 39.2266 48.7923 39.2266 48.7598 39.2266C48.7272 39.2266 48.6865 39.2266 48.6377 39.2266C48.5889 39.2266 48.5319 39.2428 48.4668 39.2754C48.4342 39.2754 48.3936 39.2917 48.3447 39.3242C48.2959 39.3568 48.2552 39.3893 48.2227 39.4219C48.1901 39.4544 48.1657 39.4951 48.1494 39.5439C48.1331 39.5928 48.1087 39.6335 48.0762 39.666C48.0762 39.6986 48.068 39.7393 48.0518 39.7881C48.0355 39.8369 48.0273 39.8939 48.0273 39.959C48.0273 39.9915 48.0355 40.0322 48.0518 40.0811C48.068 40.1299 48.0762 40.1706 48.0762 40.2031C48.1087 40.2682 48.1331 40.3171 48.1494 40.3496C48.1657 40.3822 48.1901 40.4147 48.2227 40.4473L49.7852 42.0098C49.8177 42.0423 49.8584 42.0749 49.9072 42.1074C49.9561 42.14 49.9967 42.1725 50.0293 42.2051C50.0944 42.2051 50.1514 42.2132 50.2002 42.2295C50.249 42.2458 50.2897 42.2539 50.3223 42.2539ZM46.0742 41.5703C46.0417 41.6029 46.0091 41.6436 45.9766 41.6924C45.944 41.7412 45.9277 41.7819 45.9277 41.8145C45.8952 41.8796 45.8789 41.9365 45.8789 41.9854C45.8789 42.0342 45.8789 42.0749 45.8789 42.1074C45.8789 42.14 45.8789 42.1807 45.8789 42.2295C45.8789 42.2783 45.8952 42.3353 45.9277 42.4004C45.9277 42.4329 45.944 42.4736 45.9766 42.5225C46.0091 42.5713 46.0417 42.612 46.0742 42.6445L47.6367 44.207C47.6693 44.2396 47.71 44.264 47.7588 44.2803C47.8076 44.2965 47.8483 44.321 47.8809 44.3535C47.9134 44.3535 47.9541 44.3617 48.0029 44.3779C48.0518 44.3942 48.1087 44.4023 48.1738 44.4023C48.2389 44.4023 48.304 44.3942 48.3691 44.3779C48.4342 44.3617 48.4993 44.321 48.5645 44.2559C48.6296 44.2233 48.6865 44.1826 48.7353 44.1338C48.7842 44.085 48.8249 44.028 48.8574 43.9629C48.8574 43.8978 48.8656 43.8245 48.8818 43.7432C48.8981 43.6618 48.89 43.5885 48.8574 43.5234C48.8574 43.4583 48.8411 43.3932 48.8086 43.3281C48.776 43.263 48.7272 43.1979 48.6621 43.1328L47.0996 41.5703C47.0671 41.5378 47.0345 41.5133 47.002 41.4971C46.9694 41.4808 46.9206 41.4564 46.8555 41.4238C46.8229 41.4238 46.7822 41.4157 46.7334 41.3994C46.6846 41.3831 46.6439 41.375 46.6113 41.375C46.5462 41.375 46.4893 41.3831 46.4404 41.3994C46.3916 41.4157 46.3509 41.4238 46.3184 41.4238C46.2858 41.4564 46.2451 41.4808 46.1963 41.4971C46.1475 41.5133 46.1068 41.5378 46.0742 41.5703ZM60.7715 27.752C60.7389 27.7194 60.7064 27.6868 60.6738 27.6543C60.6413 27.6217 60.5924 27.6055 60.5273 27.6055C60.4948 27.5729 60.4541 27.5566 60.4053 27.5566C60.3564 27.5566 60.3158 27.5566 60.2832 27.5566C60.2181 27.5566 60.1611 27.5566 60.1123 27.5566C60.0635 27.5566 60.0228 27.5729 59.9902 27.6055C59.9577 27.6055 59.917 27.6217 59.8682 27.6543C59.8193 27.6868 59.7786 27.7194 59.7461 27.752C59.7135 27.7845 59.681 27.8252 59.6484 27.874C59.6159 27.9229 59.5996 27.9635 59.5996 27.9961C59.5671 28.0286 59.5508 28.0693 59.5508 28.1182C59.5508 28.167 59.5508 28.224 59.5508 28.2891C59.5508 28.3216 59.5508 28.3623 59.5508 28.4111C59.5508 28.46 59.5671 28.5007 59.5996 28.5332C59.5996 28.5983 59.6159 28.6471 59.6484 28.6797C59.681 28.7122 59.7135 28.7448 59.7461 28.7773C59.7786 28.8099 59.8193 28.8424 59.8682 28.875C59.917 28.9076 59.9577 28.9401 59.9902 28.9727C60.0228 28.9727 60.0635 28.9808 60.1123 28.9971C60.1611 29.0133 60.2181 29.0215 60.2832 29.0215C60.3158 29.0215 60.3564 29.0133 60.4053 28.9971C60.4541 28.9808 60.4948 28.9727 60.5273 28.9727C60.5924 28.9401 60.6413 28.9076 60.6738 28.875C60.7064 28.8424 60.7389 28.8099 60.7715 28.7773C60.804 28.7448 60.8366 28.7122 60.8691 28.6797C60.9017 28.6471 60.918 28.5983 60.918 28.5332C60.9505 28.5007 60.9749 28.46 60.9912 28.4111C61.0075 28.3623 61.0156 28.3216 61.0156 28.2891C61.0156 28.224 61.0075 28.167 60.9912 28.1182C60.9749 28.0693 60.9505 28.0286 60.918 27.9961C60.918 27.9635 60.9017 27.9229 60.8691 27.874C60.8366 27.8252 60.804 27.7845 60.7715 27.752ZM62.5293 29.5098C62.4967 29.4772 62.4642 29.4447 62.4316 29.4121C62.3991 29.3796 62.3503 29.347 62.2852 29.3145C62.2526 29.3145 62.2119 29.3063 62.1631 29.29C62.1143 29.2738 62.0736 29.2656 62.041 29.2656C61.9759 29.2656 61.9189 29.2738 61.8701 29.29C61.8213 29.3063 61.7806 29.3145 61.748 29.3145C61.7155 29.347 61.6748 29.3796 61.626 29.4121C61.5771 29.4447 61.5365 29.4772 61.5039 29.5098C61.3737 29.64 61.3086 29.8109 61.3086 30.0225C61.3086 30.2341 61.3737 30.4049 61.5039 30.5352C61.5365 30.5677 61.5771 30.6003 61.626 30.6328C61.6748 30.6654 61.7155 30.6816 61.748 30.6816C61.7806 30.7142 61.8213 30.7305 61.8701 30.7305C61.9189 30.7305 61.9759 30.7305 62.041 30.7305C62.0736 30.7305 62.1143 30.7305 62.1631 30.7305C62.2119 30.7305 62.2526 30.7142 62.2852 30.6816C62.3503 30.6816 62.3991 30.6654 62.4316 30.6328C62.4642 30.6003 62.4967 30.5677 62.5293 30.5352C62.6921 30.4049 62.7734 30.2341 62.7734 30.0225C62.7734 29.8109 62.6921 29.64 62.5293 29.5098ZM62.9688 25.5547C62.9362 25.5221 62.9036 25.4896 62.8711 25.457C62.8385 25.4245 62.7897 25.4082 62.7246 25.4082C62.6921 25.3757 62.6514 25.3594 62.6025 25.3594C62.5537 25.3594 62.513 25.3594 62.4805 25.3594C62.4154 25.3594 62.3584 25.3594 62.3096 25.3594C62.2607 25.3594 62.2201 25.3757 62.1875 25.4082C62.1549 25.4082 62.1143 25.4245 62.0654 25.457C62.0166 25.4896 61.9759 25.5221 61.9434 25.5547C61.9108 25.5872 61.8783 25.6198 61.8457 25.6523C61.8131 25.6849 61.7969 25.7337 61.7969 25.7988C61.7643 25.8314 61.748 25.8721 61.748 25.9209C61.748 25.9697 61.748 26.0267 61.748 26.0918C61.748 26.1243 61.748 26.165 61.748 26.2139C61.748 26.2627 61.7643 26.3034 61.7969 26.3359C61.7969 26.401 61.8131 26.4499 61.8457 26.4824C61.8783 26.515 61.9108 26.5475 61.9434 26.5801C61.9759 26.6126 62.0166 26.6452 62.0654 26.6777C62.1143 26.7103 62.1549 26.7266 62.1875 26.7266C62.2201 26.7591 62.2607 26.7835 62.3096 26.7998C62.3584 26.8161 62.4154 26.8242 62.4805 26.8242C62.513 26.8242 62.5537 26.8161 62.6025 26.7998C62.6514 26.7835 62.6921 26.7591 62.7246 26.7266C62.7897 26.7266 62.8385 26.7103 62.8711 26.6777C62.9036 26.6452 62.9362 26.6126 62.9688 26.5801C63.0013 26.5475 63.0339 26.515 63.0664 26.4824C63.099 26.4499 63.1315 26.401 63.1641 26.3359C63.1641 26.3034 63.1722 26.2627 63.1885 26.2139C63.2048 26.165 63.2129 26.1243 63.2129 26.0918C63.2129 26.0267 63.2048 25.9697 63.1885 25.9209C63.1722 25.8721 63.1641 25.8314 63.1641 25.7988C63.1315 25.7337 63.099 25.6849 63.0664 25.6523C63.0339 25.6198 63.0013 25.5872 62.9688 25.5547ZM64.7266 27.3125C64.694 27.2799 64.6615 27.2474 64.6289 27.2148C64.5964 27.1823 64.5475 27.1497 64.4824 27.1172C64.4499 27.1172 64.4092 27.1091 64.3604 27.0928C64.3115 27.0765 64.2708 27.0684 64.2383 27.0684C64.1732 27.0684 64.1162 27.0765 64.0674 27.0928C64.0186 27.1091 63.9779 27.1172 63.9453 27.1172C63.9128 27.1497 63.8721 27.1823 63.8232 27.2148C63.7744 27.2474 63.7337 27.2799 63.7012 27.3125C63.6686 27.3451 63.6361 27.3776 63.6035 27.4102C63.571 27.4427 63.5547 27.4915 63.5547 27.5566C63.5221 27.5892 63.5059 27.6299 63.5059 27.6787C63.5059 27.7275 63.5059 27.7682 63.5059 27.8008C63.5059 27.8659 63.5059 27.9229 63.5059 27.9717C63.5059 28.0205 63.5221 28.0612 63.5547 28.0938C63.5547 28.1263 63.571 28.167 63.6035 28.2158C63.6361 28.2646 63.6686 28.3053 63.7012 28.3379C63.7337 28.3704 63.7744 28.403 63.8232 28.4355C63.8721 28.4681 63.9128 28.4844 63.9453 28.4844C63.9779 28.5169 64.0186 28.5332 64.0674 28.5332C64.1162 28.5332 64.1732 28.5332 64.2383 28.5332C64.2708 28.5332 64.3115 28.5332 64.3604 28.5332C64.4092 28.5332 64.4499 28.5169 64.4824 28.4844C64.5475 28.4844 64.5964 28.4681 64.6289 28.4355C64.6615 28.403 64.694 28.3704 64.7266 28.3379C64.7591 28.3053 64.7917 28.2646 64.8242 28.2158C64.8568 28.167 64.8893 28.1263 64.9219 28.0938C64.9219 28.0612 64.93 28.0205 64.9463 27.9717C64.9626 27.9229 64.9707 27.8659 64.9707 27.8008C64.9707 27.7682 64.9626 27.7275 64.9463 27.6787C64.93 27.6299 64.9219 27.5892 64.9219 27.5566C64.8893 27.4915 64.8568 27.4427 64.8242 27.4102C64.7917 27.3776 64.7591 27.3451 64.7266 27.3125ZM65.166 23.3574C65.1335 23.3249 65.1009 23.2923 65.0684 23.2598C65.0358 23.2272 64.987 23.2109 64.9219 23.2109C64.8893 23.1784 64.8486 23.1621 64.7998 23.1621C64.751 23.1621 64.7103 23.1621 64.6777 23.1621C64.6126 23.1621 64.5557 23.1621 64.5068 23.1621C64.458 23.1621 64.4173 23.1784 64.3848 23.2109C64.3522 23.2109 64.3115 23.2272 64.2627 23.2598C64.2139 23.2923 64.1732 23.3249 64.1406 23.3574C64.1081 23.39 64.0755 23.4225 64.043 23.4551C64.0104 23.4876 63.9941 23.5365 63.9941 23.6016C63.9616 23.6341 63.9453 23.6748 63.9453 23.7236C63.9453 23.7725 63.9453 23.8294 63.9453 23.8945C63.9453 23.9271 63.9453 23.9678 63.9453 24.0166C63.9453 24.0654 63.9616 24.1061 63.9941 24.1387C63.9941 24.2038 64.0104 24.2526 64.043 24.2852C64.0755 24.3177 64.1081 24.3503 64.1406 24.3828C64.1732 24.4154 64.2139 24.4479 64.2627 24.4805C64.3115 24.513 64.3522 24.5293 64.3848 24.5293C64.4173 24.5618 64.458 24.5863 64.5068 24.6025C64.5557 24.6188 64.6126 24.627 64.6777 24.627C64.7103 24.627 64.751 24.6188 64.7998 24.6025C64.8486 24.5863 64.8893 24.5618 64.9219 24.5293C64.987 24.5293 65.0358 24.513 65.0684 24.4805C65.1009 24.4479 65.1335 24.4154 65.166 24.3828C65.1986 24.3503 65.2311 24.3177 65.2637 24.2852C65.2962 24.2526 65.3288 24.2038 65.3613 24.1387C65.3613 24.1061 65.3695 24.0654 65.3857 24.0166C65.402 23.9678 65.4102 23.9271 65.4102 23.8945C65.4102 23.8294 65.402 23.7725 65.3857 23.7236C65.3695 23.6748 65.3613 23.6341 65.3613 23.6016C65.3288 23.5365 65.2962 23.4876 65.2637 23.4551C65.2311 23.4225 65.1986 23.39 65.166 23.3574ZM66.9238 25.1152C66.8913 25.0827 66.8587 25.0501 66.8262 25.0176C66.7936 24.985 66.7448 24.9525 66.6797 24.9199C66.6471 24.9199 66.6064 24.9118 66.5576 24.8955C66.5088 24.8792 66.4681 24.8711 66.4355 24.8711C66.3704 24.8711 66.3135 24.8792 66.2646 24.8955C66.2158 24.9118 66.1751 24.9199 66.1426 24.9199C66.11 24.9525 66.0693 24.985 66.0205 25.0176C65.9717 25.0501 65.931 25.0827 65.8984 25.1152C65.8659 25.1478 65.8333 25.1803 65.8008 25.2129C65.7682 25.2454 65.752 25.2943 65.752 25.3594C65.7194 25.3919 65.7031 25.4326 65.7031 25.4814C65.7031 25.5303 65.7031 25.571 65.7031 25.6035C65.7031 25.6686 65.7031 25.7256 65.7031 25.7744C65.7031 25.8232 65.7194 25.8639 65.752 25.8965C65.752 25.929 65.7682 25.9697 65.8008 26.0186C65.8333 26.0674 65.8659 26.1081 65.8984 26.1406C65.931 26.1732 65.9717 26.2057 66.0205 26.2383C66.0693 26.2708 66.11 26.2871 66.1426 26.2871C66.1751 26.3197 66.2158 26.3359 66.2646 26.3359C66.3135 26.3359 66.3704 26.3359 66.4355 26.3359C66.4681 26.3359 66.5088 26.3359 66.5576 26.3359C66.6064 26.3359 66.6471 26.3197 66.6797 26.2871C66.7448 26.2871 66.7936 26.2708 66.8262 26.2383C66.8587 26.2057 66.8913 26.1732 66.9238 26.1406C66.9564 26.1081 66.9889 26.0674 67.0215 26.0186C67.054 25.9697 67.0866 25.929 67.1191 25.8965C67.1191 25.8639 67.1273 25.8232 67.1436 25.7744C67.1598 25.7256 67.168 25.6686 67.168 25.6035C67.168 25.571 67.1598 25.5303 67.1436 25.4814C67.1273 25.4326 67.1191 25.3919 67.1191 25.3594C67.0866 25.2943 67.054 25.2454 67.0215 25.2129C66.9889 25.1803 66.9564 25.1478 66.9238 25.1152Z" fill="#F92596"/>
</svg>
