<svg width="90" height="91" viewBox="0 0 90 91" fill="none" xmlns="http://www.w3.org/2000/svg">
<rect y="0.78125" width="90" height="90" rx="8" fill="#5866EB" fill-opacity="0.15"/>
<path d="M36.3574 44.8047C36.1621 45.5859 35.7471 46.237 35.1123 46.7578C34.4775 47.2786 33.737 47.5391 32.8906 47.5391C32.6628 47.5391 32.4756 47.6204 32.3291 47.7832C32.1826 47.946 32.1094 48.1413 32.1094 48.3691C32.1094 48.597 32.1826 48.7923 32.3291 48.9551C32.4756 49.1178 32.6628 49.1992 32.8906 49.1992C34.1927 49.1992 35.3158 48.776 36.2598 47.9297C37.2038 47.0833 37.7734 46.0417 37.9688 44.8047C38.75 44.7396 39.4987 44.5361 40.2148 44.1943C40.931 43.8525 41.5658 43.3887 42.1191 42.8027C42.1842 42.7376 42.2412 42.6562 42.29 42.5586C42.3389 42.4609 42.3633 42.347 42.3633 42.2168C42.3633 42.1191 42.3389 42.0215 42.29 41.9238C42.2412 41.8262 42.1842 41.7448 42.1191 41.6797C42.0215 41.582 41.9238 41.5169 41.8262 41.4844C41.7285 41.4518 41.6309 41.4355 41.5332 41.4355C41.4355 41.4355 41.3379 41.46 41.2402 41.5088C41.1426 41.5576 41.0449 41.6146 40.9473 41.6797C40.459 42.168 39.8975 42.5505 39.2627 42.8271C38.6279 43.1038 37.9525 43.2422 37.2363 43.2422C35.7715 43.2422 34.5264 42.7295 33.501 41.7041C32.4756 40.6787 31.9629 39.4499 31.9629 38.0176C31.9629 37.7897 31.8896 37.5944 31.7432 37.4316C31.5967 37.2689 31.4095 37.1875 31.1816 37.1875C30.9538 37.1875 30.7585 37.2689 30.5957 37.4316C30.4329 37.5944 30.3516 37.7897 30.3516 38.0176C30.3516 39.7428 30.9294 41.2484 32.085 42.5342C33.2406 43.82 34.6647 44.5768 36.3574 44.8047ZM39.7754 51.8359C39.7754 51.7383 39.751 51.6325 39.7021 51.5186C39.6533 51.4046 39.5964 51.3151 39.5312 51.25C39.4661 51.1849 39.3766 51.1279 39.2627 51.0791C39.1488 51.0303 39.043 51.0059 38.9453 51.0059C37.0573 51.0059 35.446 51.6813 34.1113 53.0322C32.7767 54.3831 32.1094 56.0026 32.1094 57.8906C32.1094 57.8906 32.1094 57.9069 32.1094 57.9395C32.1094 57.972 32.1094 57.9883 32.1094 57.9883C31.9466 57.9557 31.792 57.9395 31.6455 57.9395C31.499 57.9395 31.3444 57.9395 31.1816 57.9395C30.9538 57.9395 30.7585 58.0208 30.5957 58.1836C30.4329 58.3464 30.3516 58.5254 30.3516 58.7207C30.3516 58.9486 30.4329 59.1439 30.5957 59.3066C30.7585 59.4694 30.9538 59.5508 31.1816 59.5508C32.6139 59.5508 33.8428 60.0635 34.8682 61.0889C35.8936 62.1143 36.4062 63.3431 36.4062 64.7754C36.4062 65.0033 36.4876 65.1986 36.6504 65.3613C36.8132 65.5241 37.0085 65.6055 37.2363 65.6055C37.4642 65.6055 37.6514 65.5241 37.7979 65.3613C37.9443 65.1986 38.0176 65.0033 38.0176 64.7754C38.0176 63.3431 37.6188 62.0573 36.8213 60.918C36.0238 59.7786 34.9902 58.9486 33.7207 58.4277C33.7207 58.3301 33.7207 58.2406 33.7207 58.1592C33.7207 58.0778 33.7207 57.9883 33.7207 57.8906C33.7207 56.4258 34.2334 55.1807 35.2588 54.1553C36.2842 53.1299 37.513 52.6172 38.9453 52.6172C39.043 52.6172 39.1488 52.6009 39.2627 52.5684C39.3766 52.5358 39.4661 52.487 39.5312 52.4219C39.5964 52.3242 39.6533 52.2266 39.7021 52.1289C39.751 52.0312 39.7754 51.9336 39.7754 51.8359ZM67.4121 44.9023C67.4121 44.4466 67.3633 43.999 67.2656 43.5596C67.168 43.1201 67.0378 42.6888 66.875 42.2656C66.7122 41.8424 66.5007 41.4437 66.2402 41.0693C65.9798 40.695 65.6868 40.3451 65.3613 40.0195C65.459 39.694 65.5404 39.3604 65.6055 39.0186C65.6706 38.6768 65.7031 38.3431 65.7031 38.0176C65.7031 36.3574 65.166 34.8926 64.0918 33.623C63.0176 32.3535 61.6992 31.5723 60.1367 31.2793C60.2669 30.9863 60.3564 30.6771 60.4053 30.3516C60.4541 30.026 60.4785 29.7005 60.4785 29.375C60.4785 28.3008 60.1937 27.3405 59.624 26.4941C59.0544 25.6478 58.3138 25.0293 57.4023 24.6387C55.8724 23.4342 54.318 22.4902 52.7393 21.8066C51.1605 21.123 49.7363 20.7812 48.4668 20.7812C47.7507 20.7812 47.0915 20.944 46.4893 21.2695C45.887 21.5951 45.3906 22.0182 45 22.5391C44.6094 22.0182 44.113 21.5951 43.5107 21.2695C42.9085 20.944 42.2493 20.7812 41.5332 20.7812C40.2637 20.7812 38.8395 21.123 37.2607 21.8066C35.682 22.4902 34.1276 23.4342 32.5977 24.6387C31.6862 25.0293 30.9456 25.6478 30.376 26.4941C29.8063 27.3405 29.5215 28.3008 29.5215 29.375C29.5215 29.7005 29.5459 30.026 29.5947 30.3516C29.6436 30.6771 29.7331 30.9863 29.8633 31.2793C28.3008 31.5723 26.9824 32.3535 25.9082 33.623C24.834 34.8926 24.2969 36.3574 24.2969 38.0176C24.2969 38.3431 24.3294 38.6768 24.3945 39.0186C24.4596 39.3604 24.541 39.694 24.6387 40.0195C24.3132 40.3451 24.0202 40.695 23.7598 41.0693C23.4993 41.4437 23.2878 41.8424 23.125 42.2656C22.9622 42.6888 22.832 43.1201 22.7344 43.5596C22.6367 43.999 22.5879 44.4466 22.5879 44.9023C22.5879 45.6185 22.6937 46.3102 22.9053 46.9775C23.1169 47.6449 23.418 48.2552 23.8086 48.8086C23.418 49.362 23.1169 49.9723 22.9053 50.6396C22.6937 51.307 22.5879 51.9987 22.5879 52.7148C22.5879 53.9518 22.9053 55.1074 23.54 56.1816C24.1748 57.2559 25.0293 58.0859 26.1035 58.6719C26.071 58.8346 26.0547 58.9893 26.0547 59.1357C26.0547 59.2822 26.0547 59.4368 26.0547 59.5996C26.0547 61.2923 26.5511 62.8141 27.5439 64.165C28.5368 65.516 29.8307 66.4518 31.4258 66.9727C32.1094 68.1445 33.0452 69.0723 34.2334 69.7559C35.4215 70.4395 36.6992 70.7812 38.0664 70.7812C39.5964 70.7812 40.9798 70.3825 42.2168 69.585C43.4538 68.7874 44.3815 67.7539 45 66.4844C45.6185 67.7539 46.5462 68.7874 47.7832 69.585C49.0202 70.3825 50.4036 70.7812 51.9336 70.7812C53.3008 70.7812 54.5785 70.4395 55.7666 69.7559C56.9548 69.0723 57.8906 68.1445 58.5742 66.9727C60.1693 66.4518 61.4632 65.516 62.4561 64.165C63.4489 62.8141 63.9453 61.2923 63.9453 59.5996C63.9453 59.4368 63.9453 59.2822 63.9453 59.1357C63.9453 58.9893 63.929 58.8346 63.8965 58.6719C64.9707 58.0859 65.8252 57.2559 66.46 56.1816C67.0947 55.1074 67.4121 53.9518 67.4121 52.7148C67.4121 51.9987 67.3063 51.307 67.0947 50.6396C66.8831 49.9723 66.582 49.362 66.1914 48.8086C66.582 48.2552 66.8831 47.6449 67.0947 46.9775C67.3063 46.3102 67.4121 45.6185 67.4121 44.9023ZM38.0664 69.1699C36.9596 69.1699 35.918 68.877 34.9414 68.291C33.9648 67.7051 33.2161 66.9076 32.6953 65.8984C32.6628 65.8333 32.6302 65.7845 32.5977 65.752C32.5651 65.7194 32.5326 65.6868 32.5 65.6543C32.4349 65.6217 32.3779 65.5892 32.3291 65.5566C32.2803 65.5241 32.2233 65.5078 32.1582 65.5078C30.8561 65.1497 29.7819 64.4173 28.9355 63.3105C28.0892 62.2038 27.666 60.9668 27.666 59.5996C27.666 59.4043 27.6742 59.2008 27.6904 58.9893C27.7067 58.7777 27.7474 58.5742 27.8125 58.3789C27.8125 58.2812 27.8044 58.1917 27.7881 58.1104C27.7718 58.029 27.7474 57.9395 27.7148 57.8418C27.6823 57.7767 27.6335 57.7116 27.5684 57.6465C27.5033 57.5814 27.4219 57.5326 27.3242 57.5C26.3802 57.0768 25.6234 56.4258 25.0537 55.5469C24.484 54.668 24.1992 53.724 24.1992 52.7148C24.1992 52.2266 24.2643 51.7627 24.3945 51.3232C24.5247 50.8838 24.7038 50.4688 24.9316 50.0781C25.5176 50.599 26.2012 51.014 26.9824 51.3232C27.7637 51.6325 28.5938 51.7871 29.4727 51.7871C29.668 51.7871 29.847 51.7057 30.0098 51.543C30.1725 51.3802 30.2539 51.1849 30.2539 50.957C30.2539 50.7292 30.1725 50.542 30.0098 50.3955C29.847 50.249 29.668 50.1758 29.4727 50.1758C28.0078 50.1758 26.7627 49.6631 25.7373 48.6377C24.7119 47.6123 24.1992 46.3672 24.1992 44.9023C24.1992 44.1211 24.362 43.3805 24.6875 42.6807C25.013 41.9808 25.485 41.3867 26.1035 40.8984C26.1686 40.8333 26.2256 40.7682 26.2744 40.7031C26.3232 40.638 26.3477 40.5566 26.3477 40.459C26.3802 40.3939 26.3965 40.3125 26.3965 40.2148C26.3965 40.1172 26.3802 40.0358 26.3477 39.9707C26.2174 39.6452 26.1198 39.3197 26.0547 38.9941C25.9896 38.6686 25.957 38.3431 25.957 38.0176C25.957 36.5527 26.4697 35.3076 27.4951 34.2822C28.5205 33.2568 29.7493 32.7441 31.1816 32.7441C32.6139 32.7441 33.8428 33.2568 34.8682 34.2822C35.8936 35.3076 36.4062 36.5527 36.4062 38.0176C36.4062 38.2454 36.4876 38.4326 36.6504 38.5791C36.8132 38.7256 37.0085 38.7988 37.2363 38.7988C37.4642 38.7988 37.6514 38.7256 37.7979 38.5791C37.9443 38.4326 38.0176 38.2454 38.0176 38.0176C38.0176 36.1947 37.3991 34.624 36.1621 33.3057C34.9251 31.9873 33.4115 31.2793 31.6211 31.1816C31.4583 30.8887 31.3363 30.5957 31.2549 30.3027C31.1735 30.0098 31.1328 29.7005 31.1328 29.375C31.1328 28.6589 31.3281 28.0078 31.7188 27.4219C32.1094 26.8359 32.6139 26.4128 33.2324 26.1523C33.265 26.1523 33.2975 26.1442 33.3301 26.1279C33.3626 26.1117 33.3789 26.1035 33.3789 26.1035C33.5742 26.0059 33.7777 25.9408 33.9893 25.9082C34.2008 25.8757 34.4206 25.8594 34.6484 25.8594C35.332 25.8594 35.9505 26.0384 36.5039 26.3965C37.0573 26.7546 37.4805 27.2266 37.7734 27.8125C37.806 27.8776 37.8385 27.9346 37.8711 27.9834C37.9036 28.0322 37.9362 28.0729 37.9688 28.1055C38.0339 28.138 38.0827 28.1624 38.1152 28.1787C38.1478 28.195 38.1966 28.2194 38.2617 28.252C38.2943 28.252 38.3431 28.2601 38.4082 28.2764C38.4733 28.2926 38.5221 28.3008 38.5547 28.3008C38.6198 28.3008 38.6768 28.2926 38.7256 28.2764C38.7744 28.2601 38.8314 28.2357 38.8965 28.2031C38.929 28.1706 38.9697 28.138 39.0186 28.1055C39.0674 28.0729 39.1081 28.0404 39.1406 28.0078C39.1732 27.9753 39.1976 27.9346 39.2139 27.8857C39.2301 27.8369 39.2546 27.7962 39.2871 27.7637C39.3197 27.6986 39.3359 27.6416 39.3359 27.5928C39.3359 27.5439 39.3359 27.487 39.3359 27.4219C39.3359 27.3893 39.3278 27.3405 39.3115 27.2754C39.2952 27.2103 39.2708 27.1615 39.2383 27.1289C38.9128 26.4453 38.4489 25.8594 37.8467 25.3711C37.2445 24.8828 36.569 24.5573 35.8203 24.3945C36.862 23.7435 37.8711 23.2471 38.8477 22.9053C39.8242 22.5635 40.7194 22.3926 41.5332 22.3926C42.2819 22.3926 42.9085 22.653 43.4131 23.1738C43.9176 23.6947 44.1699 24.3132 44.1699 25.0293V35.5273C43.8118 35.2344 43.4131 35.0065 42.9736 34.8438C42.5342 34.681 42.054 34.5996 41.5332 34.5996C41.3053 34.5996 41.1182 34.681 40.9717 34.8438C40.8252 35.0065 40.752 35.2018 40.752 35.4297C40.752 35.6576 40.8252 35.8447 40.9717 35.9912C41.1182 36.1377 41.3053 36.2109 41.5332 36.2109C42.2819 36.2109 42.9085 36.4714 43.4131 36.9922C43.9176 37.513 44.1699 38.1315 44.1699 38.8477V58.3301C43.6816 57.679 43.0876 57.1175 42.3877 56.6455C41.6878 56.1735 40.931 55.8236 40.1172 55.5957C40.0521 55.5957 39.9951 55.5957 39.9463 55.5957C39.8975 55.5957 39.8405 55.5957 39.7754 55.5957C39.7103 55.5957 39.6533 55.6038 39.6045 55.6201C39.5557 55.6364 39.515 55.6608 39.4824 55.6934C39.4173 55.7259 39.3685 55.7585 39.3359 55.791C39.3034 55.8236 39.2708 55.8561 39.2383 55.8887C39.2057 55.9212 39.1813 55.9619 39.165 56.0107C39.1488 56.0596 39.1243 56.1165 39.0918 56.1816C39.0918 56.2467 39.0837 56.3037 39.0674 56.3525C39.0511 56.4014 39.0592 56.4421 39.0918 56.4746C39.0918 56.5397 39.0999 56.5967 39.1162 56.6455C39.1325 56.6943 39.1569 56.7513 39.1895 56.8164C39.222 56.849 39.2546 56.8815 39.2871 56.9141C39.3197 56.9466 39.3522 56.9792 39.3848 57.0117C39.4173 57.0443 39.458 57.0768 39.5068 57.1094C39.5557 57.1419 39.6126 57.1582 39.6777 57.1582C41.0124 57.5163 42.0947 58.2487 42.9248 59.3555C43.7549 60.4622 44.1699 61.6992 44.1699 63.0664C44.1699 64.7591 43.5758 66.1995 42.3877 67.3877C41.1995 68.5758 39.7591 69.1699 38.0664 69.1699ZM62.6758 57.5C62.5781 57.5326 62.4967 57.5814 62.4316 57.6465C62.3665 57.7116 62.3177 57.7767 62.2852 57.8418C62.2526 57.9395 62.2282 58.029 62.2119 58.1104C62.1956 58.1917 62.1875 58.2812 62.1875 58.3789C62.2526 58.5742 62.2933 58.7777 62.3096 58.9893C62.3258 59.2008 62.334 59.4043 62.334 59.5996C62.334 60.9668 61.9108 62.2038 61.0645 63.3105C60.2181 64.4173 59.1439 65.1497 57.8418 65.5078C57.7767 65.5078 57.7197 65.5241 57.6709 65.5566C57.6221 65.5892 57.5651 65.6217 57.5 65.6543C57.4674 65.6868 57.4349 65.7194 57.4023 65.752C57.3698 65.7845 57.3372 65.8333 57.3047 65.8984C56.7839 66.9076 56.0352 67.7051 55.0586 68.291C54.082 68.877 53.0404 69.1699 51.9336 69.1699C50.2409 69.1699 48.8005 68.5758 47.6123 67.3877C46.4242 66.1995 45.8301 64.7591 45.8301 63.0664C45.8301 62.9362 45.8219 62.8141 45.8057 62.7002C45.7894 62.5863 45.7812 62.4805 45.7812 62.3828C45.7812 62.3503 45.7894 62.3177 45.8057 62.2852C45.8219 62.2526 45.8301 62.2201 45.8301 62.1875V35.4297C45.8301 34.681 46.0824 34.0462 46.5869 33.5254C47.0915 33.0046 47.7181 32.7441 48.4668 32.7441C48.6947 32.7441 48.8818 32.6709 49.0283 32.5244C49.1748 32.3779 49.248 32.1908 49.248 31.9629C49.248 31.735 49.1748 31.5397 49.0283 31.377C48.8818 31.2142 48.6947 31.1328 48.4668 31.1328C47.946 31.1328 47.4658 31.2142 47.0264 31.377C46.5869 31.5397 46.1882 31.7676 45.8301 32.0605V25.0293C45.8301 24.3132 46.0824 23.6947 46.5869 23.1738C47.0915 22.653 47.7181 22.3926 48.4668 22.3926C49.2806 22.3926 50.1758 22.5635 51.1523 22.9053C52.1289 23.2471 53.138 23.7435 54.1797 24.3945C53.431 24.5573 52.7555 24.8828 52.1533 25.3711C51.5511 25.8594 51.0872 26.4453 50.7617 27.1289C50.7292 27.1615 50.7048 27.2103 50.6885 27.2754C50.6722 27.3405 50.6641 27.3893 50.6641 27.4219C50.6641 27.487 50.6641 27.5439 50.6641 27.5928C50.6641 27.6416 50.6803 27.6986 50.7129 27.7637C50.7454 27.7962 50.7699 27.8369 50.7861 27.8857C50.8024 27.9346 50.8268 27.9753 50.8594 28.0078C50.8919 28.0404 50.9326 28.0729 50.9814 28.1055C51.0303 28.138 51.071 28.1706 51.1035 28.2031C51.1686 28.2357 51.2256 28.2601 51.2744 28.2764C51.3232 28.2926 51.3802 28.3008 51.4453 28.3008C51.4779 28.3008 51.5267 28.2926 51.5918 28.2764C51.6569 28.2601 51.7057 28.252 51.7383 28.252C51.8034 28.2194 51.8522 28.195 51.8848 28.1787C51.9173 28.1624 51.9661 28.138 52.0312 28.1055C52.0638 28.0729 52.0964 28.0322 52.1289 27.9834C52.1615 27.9346 52.194 27.8776 52.2266 27.8125C52.5195 27.2266 52.9427 26.7546 53.4961 26.3965C54.0495 26.0384 54.668 25.8594 55.3516 25.8594C55.5794 25.8594 55.7992 25.8757 56.0107 25.9082C56.2223 25.9408 56.4258 26.0059 56.6211 26.1035C56.6211 26.1035 56.6374 26.1117 56.6699 26.1279C56.7025 26.1442 56.735 26.1523 56.7676 26.1523C57.3861 26.4128 57.8906 26.8359 58.2812 27.4219C58.6719 28.0078 58.8672 28.6589 58.8672 29.375C58.8672 29.7005 58.8265 30.0098 58.7451 30.3027C58.6637 30.5957 58.5417 30.8887 58.3789 31.1816C56.5885 31.2793 55.0749 31.9873 53.8379 33.3057C52.6009 34.624 51.9824 36.1947 51.9824 38.0176C51.9824 38.2454 52.0557 38.4326 52.2021 38.5791C52.3486 38.7256 52.5358 38.7988 52.7637 38.7988C52.9915 38.7988 53.1868 38.7256 53.3496 38.5791C53.5124 38.4326 53.5938 38.2454 53.5938 38.0176C53.5938 36.5527 54.1064 35.3076 55.1318 34.2822C56.1572 33.2568 57.3861 32.7441 58.8184 32.7441C60.2507 32.7441 61.4795 33.2568 62.5049 34.2822C63.5303 35.3076 64.043 36.5527 64.043 38.0176C64.043 38.3431 64.0104 38.6686 63.9453 38.9941C63.8802 39.3197 63.7826 39.6452 63.6523 39.9707C63.6198 40.0358 63.6035 40.1172 63.6035 40.2148C63.6035 40.3125 63.6198 40.3939 63.6523 40.459C63.6523 40.5566 63.6768 40.638 63.7256 40.7031C63.7744 40.7682 63.8314 40.8333 63.8965 40.8984C64.515 41.3867 64.987 41.9808 65.3125 42.6807C65.638 43.3805 65.8008 44.1211 65.8008 44.9023C65.8008 46.3672 65.2881 47.6123 64.2627 48.6377C63.2373 49.6631 61.9922 50.1758 60.5273 50.1758C60.332 50.1758 60.153 50.249 59.9902 50.3955C59.8275 50.542 59.7461 50.7292 59.7461 50.957C59.7461 51.1849 59.8275 51.3802 59.9902 51.543C60.153 51.7057 60.332 51.7871 60.5273 51.7871C61.4062 51.7871 62.2363 51.6325 63.0176 51.3232C63.7988 51.014 64.4824 50.599 65.0684 50.0781C65.2962 50.4688 65.4753 50.8838 65.6055 51.3232C65.7357 51.7627 65.8008 52.2266 65.8008 52.7148C65.8008 53.724 65.5159 54.668 64.9463 55.5469C64.3766 56.4258 63.6198 57.0768 62.6758 57.5ZM58.8184 46.709C57.972 46.709 57.2314 46.4404 56.5967 45.9033C55.9619 45.3662 55.5632 44.707 55.4004 43.9258C57.0931 43.7305 58.5091 42.9899 59.6484 41.7041C60.7878 40.4183 61.3574 38.8965 61.3574 37.1387C61.3574 36.9108 61.276 36.7155 61.1133 36.5527C60.9505 36.39 60.7552 36.3086 60.5273 36.3086C60.332 36.3086 60.153 36.39 59.9902 36.5527C59.8275 36.7155 59.7461 36.9108 59.7461 37.1387C59.7461 38.571 59.2334 39.7998 58.208 40.8252C57.1826 41.8506 55.9538 42.3633 54.5215 42.3633C53.8053 42.3633 53.1217 42.2331 52.4707 41.9727C51.8197 41.7122 51.25 41.3216 50.7617 40.8008C50.6966 40.7357 50.6152 40.6787 50.5176 40.6299C50.4199 40.5811 50.306 40.5566 50.1758 40.5566C50.0781 40.5566 49.9805 40.5811 49.8828 40.6299C49.7852 40.6787 49.7038 40.7357 49.6387 40.8008C49.541 40.8659 49.4759 40.9473 49.4434 41.0449C49.4108 41.1426 49.3945 41.2565 49.3945 41.3867C49.3945 41.4844 49.4108 41.582 49.4434 41.6797C49.4759 41.7773 49.5247 41.8587 49.5898 41.9238C50.1758 42.5098 50.8187 42.9736 51.5186 43.3154C52.2184 43.6572 52.959 43.877 53.7402 43.9746C53.9355 45.2116 54.5133 46.2451 55.4736 47.0752C56.4339 47.9053 57.5488 48.3203 58.8184 48.3203C59.0462 48.3203 59.2415 48.2389 59.4043 48.0762C59.5671 47.9134 59.6484 47.7181 59.6484 47.4902C59.6484 47.2949 59.5671 47.1159 59.4043 46.9531C59.2415 46.7904 59.0462 46.709 58.8184 46.709ZM56.2305 56.1816C56.0677 56.1816 55.9131 56.1898 55.7666 56.2061C55.6201 56.2223 55.4655 56.2467 55.3027 56.2793C55.3027 56.2467 55.3027 56.2223 55.3027 56.2061C55.3027 56.1898 55.3027 56.1654 55.3027 56.1328C55.3027 54.2448 54.6354 52.6335 53.3008 51.2988C51.9661 49.9642 50.3548 49.2969 48.4668 49.2969C48.2389 49.2969 48.0436 49.3783 47.8809 49.541C47.7181 49.7038 47.6367 49.8828 47.6367 50.0781C47.6367 50.306 47.7181 50.5013 47.8809 50.6641C48.0436 50.8268 48.2389 50.9082 48.4668 50.9082C49.8991 50.9082 51.1279 51.4209 52.1533 52.4463C53.1787 53.4717 53.6914 54.7005 53.6914 56.1328C53.6914 56.2305 53.6914 56.3281 53.6914 56.4258C53.6914 56.5234 53.6751 56.6211 53.6426 56.7188C52.4056 57.207 51.3883 58.029 50.5908 59.1846C49.7933 60.3402 49.3945 61.6341 49.3945 63.0664C49.3945 63.2943 49.4678 63.4814 49.6143 63.6279C49.7607 63.7744 49.9479 63.8477 50.1758 63.8477C50.4036 63.8477 50.599 63.7744 50.7617 63.6279C50.9245 63.4814 51.0059 63.2943 51.0059 63.0664C51.0059 61.6341 51.5186 60.4053 52.5439 59.3799C53.5693 58.3545 54.7982 57.8418 56.2305 57.8418C56.4583 57.8418 56.6536 57.7604 56.8164 57.5977C56.9792 57.4349 57.0605 57.2396 57.0605 57.0117C57.0605 56.7839 56.9792 56.5885 56.8164 56.4258C56.6536 56.263 56.4583 56.1816 56.2305 56.1816Z" fill="#5866EB"/>
</svg>
