<svg width="90" height="91" viewBox="0 0 90 91" fill="none" xmlns="http://www.w3.org/2000/svg">
<rect y="0.28125" width="90" height="90" rx="8" fill="#F8B81F" fill-opacity="0.15"/>
<path d="M45.4873 28.7773C45.2595 28.7122 45.0316 28.6878 44.8037 28.7041C44.5759 28.7204 44.4131 28.8099 44.3154 28.9727L39.1885 35.6621C39.1885 35.6621 39.1804 35.6702 39.1641 35.6865C39.1478 35.7028 39.1397 35.7272 39.1397 35.7598C39.0746 35.9551 39.1315 36.1504 39.3106 36.3457C39.4896 36.541 39.693 36.6712 39.9209 36.7363C40.0511 36.8014 40.1732 36.8258 40.2871 36.8096C40.4011 36.7933 40.4906 36.7363 40.5557 36.6387L41.5811 35.1738L44.4131 36.1504L44.2666 37.9082C44.2666 38.0384 44.3073 38.1442 44.3887 38.2256C44.4701 38.307 44.5759 38.3639 44.7061 38.3965C44.9339 38.4616 45.1781 38.4779 45.4385 38.4453C45.6989 38.4128 45.8617 38.2988 45.9268 38.1035C45.9593 38.071 45.9756 38.0466 45.9756 38.0303C45.9756 38.014 45.9756 37.9896 45.9756 37.957L46.3174 29.6562C46.3499 29.4609 46.2767 29.29 46.0977 29.1436C45.9186 28.9971 45.7152 28.875 45.4873 28.7773ZM44.5108 34.832L42.3623 34.0996L44.7549 30.8281L44.5108 34.832ZM36.3076 59.3438L36.2588 59.0996C36.096 58.4811 35.8519 58.0579 35.5264 57.8301C35.2009 57.6022 34.8265 57.472 34.4033 57.4395C34.6963 57.2116 34.8998 56.9105 35.0137 56.5361C35.1276 56.1618 35.1032 55.7142 34.9404 55.1934C34.7126 54.347 34.3057 53.8424 33.7197 53.6797C33.1338 53.5169 32.5153 53.5332 31.8643 53.7285L29.4229 54.3145C29.2601 54.3796 29.1136 54.4691 28.9834 54.583C28.8532 54.6969 28.8044 54.8353 28.8369 54.998L30.9854 62.957C31.0179 63.0872 31.1156 63.1849 31.2783 63.25C31.4411 63.3151 31.6364 63.3151 31.8643 63.25L34.501 62.5664C35.2171 62.4036 35.7624 62.0618 36.1367 61.541C36.5111 61.0202 36.568 60.2878 36.3076 59.3438ZM31.2783 57.5859L30.7412 55.4863L32.1084 55.1445C32.4339 55.0469 32.7106 55.0713 32.9385 55.2178C33.1664 55.3643 33.3291 55.584 33.4268 55.877C33.4919 56.2025 33.4675 56.4873 33.3535 56.7314C33.2396 56.9756 33.0199 57.1302 32.6944 57.1953L31.2783 57.5859ZM33.8174 61.2969L32.3526 61.6387L31.6201 58.8066L33.0361 58.4648C33.4268 58.3672 33.7523 58.3835 34.0127 58.5137C34.2731 58.6439 34.4684 58.9531 34.5986 59.4414L34.6475 59.6367C34.7777 60.0924 34.7614 60.4505 34.5986 60.7109C34.4359 60.9714 34.1755 61.1667 33.8174 61.2969ZM60.8682 58.8066C60.6729 58.8066 60.4938 58.8473 60.3311 58.9287C60.1683 59.0101 60.0707 59.1484 60.0381 59.3438C60.0381 59.6042 59.973 59.8971 59.8428 60.2227C59.7126 60.5482 59.3382 60.7109 58.7197 60.7109C58.2966 60.7109 57.9629 60.5889 57.7188 60.3447C57.4746 60.1006 57.3526 59.7344 57.3526 59.2461V55.7305C57.3526 55.2422 57.4746 54.876 57.7188 54.6318C57.9629 54.3877 58.2966 54.2656 58.7197 54.2656C59.3382 54.2656 59.7126 54.4284 59.8428 54.7539C59.973 55.0794 60.0381 55.3398 60.0381 55.5352C60.0707 55.6979 60.1602 55.82 60.3067 55.9014C60.4531 55.9827 60.6566 56.0234 60.917 56.0234C61.21 56.0234 61.4216 55.9746 61.5518 55.877C61.682 55.7793 61.7471 55.5677 61.7471 55.2422C61.7471 54.4935 61.4541 53.8994 60.8682 53.46C60.2822 53.0205 59.5498 52.8008 58.6709 52.8008C57.8571 52.8008 57.1491 53.0205 56.5469 53.46C55.9447 53.8994 55.6436 54.6562 55.6436 55.7305V59.2461C55.6436 60.2878 55.9365 61.0283 56.5225 61.4678C57.1084 61.9072 57.8246 62.127 58.6709 62.127C59.5498 62.127 60.2822 61.8991 60.8682 61.4434C61.4541 60.9876 61.7471 60.3854 61.7471 59.6367C61.7471 59.3112 61.6738 59.0915 61.5274 58.9775C61.3809 58.8636 61.1611 58.8066 60.8682 58.8066ZM52.7627 23.8457L40.9951 20.4766C39.4977 20.0859 38.0736 20.2487 36.7227 20.9648C35.3718 21.681 34.4847 22.7552 34.0615 24.1875L32.9385 27.9473C32.9059 28.0449 32.8978 28.1426 32.9141 28.2402C32.9304 28.3379 32.9548 28.4193 32.9873 28.4844C33.0524 28.582 33.1257 28.6553 33.207 28.7041C33.2884 28.7529 33.3779 28.7936 33.4756 28.8262C33.5082 28.8587 33.5488 28.875 33.5977 28.875C33.6465 28.875 33.7035 28.875 33.7686 28.875C33.8011 28.875 33.8418 28.8669 33.8906 28.8506C33.9395 28.8343 33.9802 28.8099 34.0127 28.7773C34.0778 28.7448 34.1266 28.7122 34.1592 28.6797C34.1917 28.6471 34.2243 28.6146 34.2569 28.582C34.2894 28.5495 34.3138 28.5169 34.3301 28.4844C34.3464 28.4518 34.3708 28.403 34.4033 28.3379L35.4776 24.627C35.6403 24.1061 35.8926 23.6423 36.2344 23.2354C36.5762 22.8284 36.9749 22.4948 37.4307 22.2344C37.919 21.974 38.4317 21.8193 38.9688 21.7705C39.5059 21.7217 40.0348 21.7624 40.5557 21.8926L52.3721 25.2617C53.4463 25.5547 54.252 26.1813 54.7891 27.1416C55.3262 28.1019 55.4483 29.1029 55.1553 30.1445L51.6885 41.668C51.3955 42.7096 50.7526 43.499 49.7598 44.0361C48.7669 44.5732 47.7334 44.679 46.6592 44.3535L34.8428 41.0332C34.322 40.8704 33.8499 40.6263 33.4268 40.3008C33.0036 39.9753 32.6618 39.5846 32.4014 39.1289C32.141 38.6732 31.9863 38.1849 31.9375 37.6641C31.8887 37.1432 31.9294 36.6224 32.0596 36.1016L33.3779 31.6582C33.4105 31.5605 33.4268 31.4629 33.4268 31.3652C33.4268 31.2676 33.3942 31.1862 33.3291 31.1211C33.2966 31.0234 33.2396 30.9421 33.1582 30.877C33.0768 30.8118 32.9873 30.7793 32.8897 30.7793C32.792 30.7467 32.6944 30.7305 32.5967 30.7305C32.499 30.7305 32.4014 30.763 32.3037 30.8281C32.2061 30.8607 32.1328 30.9176 32.084 30.999C32.0352 31.0804 31.9945 31.1699 31.9619 31.2676L30.6436 35.7109C30.4157 36.3945 30.3425 37.0944 30.4238 37.8105C30.5052 38.5267 30.7249 39.194 31.083 39.8125C31.4411 40.4635 31.9131 41.0169 32.499 41.4727C33.085 41.9284 33.736 42.2539 34.4522 42.4492L46.2197 45.7695C46.4802 45.8346 46.7406 45.8916 47.001 45.9404C47.2614 45.9893 47.5218 46.0137 47.7822 46.0137C48.9867 46.0137 50.0934 45.6556 51.1026 44.9395C52.1117 44.2233 52.7953 43.263 53.1533 42.0586L56.5713 30.584C56.9945 29.1517 56.8399 27.7764 56.1074 26.458C55.375 25.1396 54.2601 24.2689 52.7627 23.8457ZM45.1943 62.0781L43.2412 50.2617C43.111 49.5456 42.8506 48.8783 42.46 48.2598C42.0693 47.6413 41.5811 47.1204 40.9951 46.6973C40.3766 46.2741 39.7093 45.9811 38.9932 45.8184C38.277 45.6556 37.5609 45.6393 36.8447 45.7695L24.6865 47.6738C23.1566 47.9017 21.944 48.626 21.0488 49.8467C20.1537 51.0674 19.82 52.4102 20.0479 53.875L20.7315 57.8301C20.764 58.0254 20.8617 58.18 21.0244 58.2939C21.1872 58.4079 21.3825 58.4486 21.6104 58.416C21.708 58.416 21.7975 58.3916 21.8789 58.3428C21.9603 58.2939 22.0335 58.2207 22.0986 58.123C22.1312 58.0579 22.1638 57.9766 22.1963 57.8789C22.2289 57.7812 22.2289 57.6836 22.1963 57.5859L21.5615 53.6797C21.3662 52.5729 21.6022 51.5801 22.2695 50.7012C22.9369 49.8223 23.8239 49.2852 24.9307 49.0898L37.0401 47.1855C37.5934 47.1204 38.1305 47.1449 38.6514 47.2588C39.1722 47.3727 39.6605 47.5762 40.1162 47.8691C40.5394 48.1947 40.8975 48.5771 41.1904 49.0166C41.4834 49.4561 41.6624 49.9362 41.7276 50.457L43.6807 62.2734C43.876 63.3802 43.64 64.373 42.9727 65.252C42.3054 66.1309 41.4183 66.668 40.3115 66.8633L28.2022 68.7676C27.6488 68.8652 27.1117 68.849 26.5908 68.7188C26.07 68.5885 25.598 68.377 25.1748 68.084C24.7191 67.7585 24.3529 67.376 24.0762 66.9365C23.7995 66.4971 23.6123 66.0169 23.5147 65.4961L22.7822 60.9551C22.7497 60.7598 22.6439 60.6051 22.4649 60.4912C22.2858 60.3773 22.0986 60.3366 21.9033 60.3691C21.8057 60.3691 21.7162 60.4017 21.6348 60.4668C21.5534 60.5319 21.4802 60.597 21.4151 60.6621C21.3499 60.7272 21.3093 60.8086 21.293 60.9062C21.2767 61.0039 21.2686 61.1016 21.2686 61.1992L22.0498 65.6914C22.1475 66.4076 22.3916 67.0749 22.7822 67.6934C23.1729 68.3118 23.6774 68.8327 24.2959 69.2559C24.7516 69.5814 25.2562 69.8337 25.8096 70.0127C26.363 70.1917 26.9326 70.2812 27.5186 70.2812C27.6813 70.2812 27.836 70.2731 27.9824 70.2568C28.1289 70.2406 28.2835 70.2324 28.4463 70.2324L40.5557 68.2793C42.0856 68.0514 43.2982 67.3271 44.1934 66.1064C45.0886 64.8857 45.4222 63.543 45.1943 62.0781ZM64.4326 46.1602H52.1279C50.598 46.1602 49.2878 46.6891 48.1973 47.7471C47.1068 48.805 46.5615 50.0827 46.5615 51.5801V55.584C46.5615 55.6816 46.5778 55.7712 46.6104 55.8525C46.6429 55.9339 46.6917 56.0072 46.7568 56.0723C46.822 56.1699 46.9033 56.235 47.001 56.2676C47.0986 56.3001 47.1963 56.3164 47.294 56.3164C47.3916 56.3164 47.4893 56.3001 47.5869 56.2676C47.6846 56.235 47.766 56.1699 47.8311 56.0723C47.8962 56.0072 47.945 55.9339 47.9776 55.8525C48.0101 55.7712 48.0264 55.6816 48.0264 55.584V51.5801C48.0264 50.4733 48.4251 49.5374 49.2227 48.7725C50.0202 48.0075 50.9886 47.625 52.1279 47.625H64.4326C65.5394 47.625 66.4916 48.0075 67.2891 48.7725C68.0866 49.5374 68.4854 50.4733 68.4854 51.5801V63.543C68.4854 64.6497 68.0866 65.5938 67.2891 66.375C66.4916 67.1562 65.5394 67.5469 64.4326 67.5469H52.1279C50.9886 67.5469 50.0202 67.1562 49.2227 66.375C48.4251 65.5938 48.0264 64.6497 48.0264 63.543V59.002C48.0264 58.9043 48.0101 58.8066 47.9776 58.709C47.945 58.6113 47.8962 58.5299 47.8311 58.4648C47.766 58.3997 47.6846 58.3509 47.5869 58.3184C47.4893 58.2858 47.3916 58.2695 47.294 58.2695C47.1963 58.2695 47.0986 58.2858 47.001 58.3184C46.9033 58.3509 46.822 58.3997 46.7568 58.4648C46.6917 58.5299 46.6429 58.6113 46.6104 58.709C46.5778 58.8066 46.5615 58.9043 46.5615 59.002V63.543C46.5615 65.0404 47.1068 66.3262 48.1973 67.4004C49.2878 68.4746 50.598 69.0117 52.1279 69.0117H64.4326C65.9626 69.0117 67.2728 68.4746 68.3633 67.4004C69.4538 66.3262 69.999 65.0404 69.999 63.543V51.5801C69.999 50.0827 69.4538 48.805 68.3633 47.7471C67.2728 46.6891 65.9626 46.1602 64.4326 46.1602Z" fill="#F8B81F"/>
</svg>
