<svg width="90" height="91" viewBox="0 0 90 91" fill="none" xmlns="http://www.w3.org/2000/svg">
<rect y="0.28125" width="90" height="90" rx="8" fill="#39C0FA" fill-opacity="0.15"/>
<path d="M31.8164 36.4922C30.7422 36.4922 29.8226 36.8747 29.0576 37.6396C28.2926 38.4046 27.9102 39.3242 27.9102 40.3984C27.9102 41.4727 28.2926 42.3923 29.0576 43.1572C29.8226 43.9222 30.7422 44.3047 31.8164 44.3047C32.8906 44.3047 33.8102 43.9222 34.5752 43.1572C35.3402 42.3923 35.7227 41.4727 35.7227 40.3984C35.7227 39.3242 35.3402 38.4046 34.5752 37.6396C33.8102 36.8747 32.8906 36.4922 31.8164 36.4922ZM31.8164 42.3516C31.263 42.3516 30.7992 42.1644 30.4248 41.79C30.0505 41.4157 29.8633 40.9518 29.8633 40.3984C29.8633 39.8451 30.0505 39.3812 30.4248 39.0068C30.7992 38.6325 31.263 38.4453 31.8164 38.4453C32.3698 38.4453 32.8337 38.6325 33.208 39.0068C33.5824 39.3812 33.7695 39.8451 33.7695 40.3984C33.7695 40.9518 33.5824 41.4157 33.208 41.79C32.8337 42.1644 32.3698 42.3516 31.8164 42.3516ZM46.4648 35.5156C46.4648 34.4414 46.0824 33.5218 45.3174 32.7568C44.5524 31.9919 43.6328 31.6094 42.5586 31.6094C41.4844 31.6094 40.5648 31.9919 39.7998 32.7568C39.0348 33.5218 38.6523 34.4414 38.6523 35.5156C38.6523 36.5898 39.0348 37.5094 39.7998 38.2744C40.5648 39.0394 41.4844 39.4219 42.5586 39.4219C43.6328 39.4219 44.5524 39.0394 45.3174 38.2744C46.0824 37.5094 46.4648 36.5898 46.4648 35.5156ZM40.6055 35.5156C40.6055 34.9622 40.7926 34.4984 41.167 34.124C41.5413 33.7497 42.0052 33.5625 42.5586 33.5625C43.112 33.5625 43.5758 33.7497 43.9502 34.124C44.3245 34.4984 44.5117 34.9622 44.5117 35.5156C44.5117 36.069 44.3245 36.5329 43.9502 36.9072C43.5758 37.2816 43.112 37.4688 42.5586 37.4688C42.0052 37.4688 41.5413 37.2816 41.167 36.9072C40.7926 36.5329 40.6055 36.069 40.6055 35.5156ZM24.9805 52.1172C24.9805 53.1914 25.363 54.111 26.1279 54.876C26.8929 55.641 27.8125 56.0234 28.8867 56.0234C29.9609 56.0234 30.8805 55.641 31.6455 54.876C32.4105 54.111 32.793 53.1914 32.793 52.1172C32.793 51.043 32.4105 50.1234 31.6455 49.3584C30.8805 48.5934 29.9609 48.2109 28.8867 48.2109C27.8125 48.2109 26.8929 48.5934 26.1279 49.3584C25.363 50.1234 24.9805 51.043 24.9805 52.1172ZM28.8867 50.1641C29.4401 50.1641 29.904 50.3512 30.2783 50.7256C30.6527 51.0999 30.8398 51.5638 30.8398 52.1172C30.8398 52.6706 30.6527 53.1344 30.2783 53.5088C29.904 53.8831 29.4401 54.0703 28.8867 54.0703C28.3333 54.0703 27.8695 53.8831 27.4951 53.5088C27.1208 53.1344 26.9336 52.6706 26.9336 52.1172C26.9336 51.5638 27.1208 51.0999 27.4951 50.7256C27.8695 50.3512 28.3333 50.1641 28.8867 50.1641ZM33.7695 59.9297C33.7695 61.0039 34.152 61.9235 34.917 62.6885C35.682 63.4535 36.6016 63.8359 37.6758 63.8359C38.75 63.8359 39.6696 63.4535 40.4346 62.6885C41.1995 61.9235 41.582 61.0039 41.582 59.9297C41.582 58.8555 41.1995 57.9359 40.4346 57.1709C39.6696 56.4059 38.75 56.0234 37.6758 56.0234C36.6016 56.0234 35.682 56.4059 34.917 57.1709C34.152 57.9359 33.7695 58.8555 33.7695 59.9297ZM39.6289 59.9297C39.6289 60.4831 39.4417 60.9469 39.0674 61.3213C38.693 61.6956 38.2292 61.8828 37.6758 61.8828C37.1224 61.8828 36.6585 61.6956 36.2842 61.3213C35.9098 60.9469 35.7227 60.4831 35.7227 59.9297C35.7227 59.3763 35.9098 58.9124 36.2842 58.5381C36.6585 58.1637 37.1224 57.9766 37.6758 57.9766C38.2292 57.9766 38.693 58.1637 39.0674 58.5381C39.4417 58.9124 39.6289 59.3763 39.6289 59.9297ZM60.1855 29.5586C60.1855 28.4193 59.5915 26.7998 58.4033 24.7002C57.2152 22.6006 56.4421 21.2741 56.084 20.7207C56.0514 20.6556 56.0026 20.5986 55.9375 20.5498C55.8724 20.501 55.8073 20.444 55.7422 20.3789C55.6771 20.3464 55.6038 20.3219 55.5225 20.3057C55.4411 20.2894 55.3678 20.2812 55.3027 20.2812C55.2051 20.2812 55.1156 20.2894 55.0342 20.3057C54.9528 20.3219 54.8796 20.3464 54.8145 20.3789C54.7493 20.444 54.6842 20.501 54.6191 20.5498C54.554 20.5986 54.5052 20.6556 54.4727 20.7207C54.1797 21.209 53.5368 22.3076 52.5439 24.0166C51.5511 25.7256 50.8919 27.2311 50.5664 28.5332C49.0039 27.9147 47.4577 27.459 45.9277 27.166C44.3652 26.8405 42.819 26.6859 41.2891 26.7021C39.7591 26.7184 38.2454 26.9056 36.748 27.2637C35.2507 27.5892 33.8021 28.0938 32.4023 28.7773C31.0026 29.4284 29.6842 30.2422 28.4473 31.2188C27.2103 32.1953 26.0791 33.2939 25.0537 34.5146C24.0283 35.7354 23.1576 37.0781 22.4414 38.543C21.6927 39.9753 21.1068 41.5052 20.6836 43.1328C20.651 43.3932 20.6999 43.6374 20.8301 43.8652C20.9603 44.0931 21.1556 44.2396 21.416 44.3047C21.4486 44.3372 21.4893 44.3535 21.5381 44.3535C21.5869 44.3535 21.6276 44.3535 21.6602 44.3535C21.888 44.3535 22.0915 44.2803 22.2705 44.1338C22.4495 43.9873 22.5553 43.8164 22.5879 43.6211C22.946 42.1888 23.4505 40.8216 24.1016 39.5195C24.7526 38.2174 25.5339 37.0049 26.4453 35.8818C27.3568 34.7588 28.3984 33.7415 29.5703 32.8301C30.7096 31.9186 31.9303 31.1536 33.2324 30.5352C34.5671 29.9167 35.9505 29.4447 37.3828 29.1191C38.7826 28.7936 40.2148 28.639 41.6797 28.6553C43.1445 28.6716 44.6257 28.8424 46.123 29.168C47.5879 29.526 49.0527 30.0306 50.5176 30.6816C50.6803 31.3327 50.9652 31.9349 51.3721 32.4883C51.779 33.0417 52.2754 33.4811 52.8613 33.8066C52.5684 34.8483 52.3161 36.1423 52.1045 37.6885C51.8929 39.2347 51.722 40.9681 51.5918 42.8887C51.5267 43.6699 51.4779 44.4756 51.4453 45.3057C51.4128 46.1357 51.3802 46.974 51.3477 47.8203C49.4922 48.8945 48.0192 50.3919 46.9287 52.3125C45.8382 54.2331 45.3743 56.3978 45.5371 58.8066C45.6022 59.7181 45.5452 60.8167 45.3662 62.1025C45.1872 63.3883 44.3815 64.666 42.9492 65.9355C41.9076 66.8145 40.6787 67.3678 39.2627 67.5957C37.8467 67.8236 36.4388 67.6934 35.0391 67.2051C33.3138 66.5866 31.7025 65.7402 30.2051 64.666C28.7402 63.5918 27.4463 62.3548 26.3232 60.9551C25.2002 59.5553 24.2806 58.0091 23.5645 56.3164C22.8483 54.6237 22.3926 52.8659 22.1973 51.043C22.1647 50.75 22.0426 50.5221 21.8311 50.3594C21.6195 50.1966 21.3672 50.1315 21.0742 50.1641C20.8138 50.1966 20.6022 50.3187 20.4395 50.5303C20.2767 50.7419 20.2116 50.9779 20.2441 51.2383C20.472 53.3216 20.9766 55.291 21.7578 57.1465C22.5716 59.002 23.597 60.6947 24.834 62.2246C26.071 63.7546 27.487 65.1055 29.082 66.2773C30.7096 67.4492 32.4837 68.377 34.4043 69.0605C36.1296 69.679 37.8711 69.8418 39.6289 69.5488C41.3867 69.2559 42.9167 68.5397 44.2188 67.4004C46.0091 65.8379 47.0182 64.2428 47.2461 62.6152C47.474 60.9876 47.5553 59.6855 47.4902 58.709C47.36 56.9186 47.653 55.2829 48.3691 53.8018C49.0853 52.3206 50.0781 51.1081 51.3477 50.1641C51.3477 51.3359 51.3802 52.7194 51.4453 54.3145C51.4779 55.9421 51.5674 57.5941 51.7139 59.2705C51.8604 60.9469 52.0475 62.5664 52.2754 64.1289C52.5033 65.6914 52.8125 67.0098 53.2031 68.084C53.3008 68.377 53.5042 68.8164 53.8135 69.4023C54.1227 69.9883 54.6029 70.2812 55.2539 70.2812C55.9049 70.2812 56.3851 69.9883 56.6943 69.4023C57.0036 68.8164 57.207 68.377 57.3047 68.084C57.6953 67.0423 58.0046 65.7402 58.2324 64.1777C58.4603 62.6152 58.6475 60.9958 58.7939 59.3193C58.9404 57.6429 59.0299 55.9909 59.0625 54.3633C59.1276 52.7357 59.1602 51.3359 59.1602 50.1641C59.1602 49.8385 59.1602 49.5049 59.1602 49.1631C59.1602 48.8213 59.1602 48.5039 59.1602 48.2109C59.2904 48.2109 59.4368 48.2109 59.5996 48.2109C59.7624 48.2109 59.9089 48.2109 60.0391 48.2109C60.9831 48.2109 61.8376 47.9505 62.6025 47.4297C63.3675 46.9089 63.9128 46.2253 64.2383 45.3789C65.1497 43.0352 64.9544 40.7646 63.6523 38.5674C62.3503 36.3701 60.7227 34.5065 58.7695 32.9766C59.2253 32.5208 59.5752 32 59.8193 31.4141C60.0635 30.8281 60.1855 30.2096 60.1855 29.5586ZM55.3027 23.1133C55.9863 24.3177 56.6455 25.5628 57.2803 26.8486C57.915 28.1344 58.2324 29.0378 58.2324 29.5586C58.2324 30.4049 57.9313 31.113 57.3291 31.6826C56.7269 32.2523 56.0189 32.5208 55.2051 32.4883C54.4238 32.4883 53.7565 32.2034 53.2031 31.6338C52.6497 31.0641 52.373 30.3724 52.373 29.5586C52.373 29.0378 52.6823 28.1344 53.3008 26.8486C53.9193 25.5628 54.5866 24.3177 55.3027 23.1133ZM55.3027 34.4414C55.3678 34.4414 55.4411 34.4414 55.5225 34.4414C55.6038 34.4414 55.6934 34.4414 55.791 34.4414C56.0189 35.3203 56.2305 36.4271 56.4258 37.7617C56.6211 39.0964 56.7839 40.5612 56.9141 42.1562C56.3607 42.2214 55.8073 42.2539 55.2539 42.2539C54.7005 42.2539 54.1471 42.2214 53.5938 42.1562C53.724 40.5286 53.8867 39.0557 54.082 37.7373C54.2773 36.4189 54.4889 35.3203 54.7168 34.4414C54.8145 34.4414 54.9121 34.4414 55.0098 34.4414C55.1074 34.4414 55.2051 34.4414 55.3027 34.4414ZM55.2539 67.9863C54.8633 67.14 54.5378 65.9355 54.2773 64.373C54.0169 62.8105 53.8135 61.1504 53.667 59.3926C53.5205 57.6348 53.431 55.9258 53.3984 54.2656C53.3333 52.6055 53.3008 51.2383 53.3008 50.1641C53.3008 49.9036 53.3008 49.5456 53.3008 49.0898C53.3008 48.6341 53.3008 48.4062 53.3008 48.4062C53.3333 47.6576 53.3577 46.9251 53.374 46.209C53.3903 45.4928 53.4147 44.793 53.4473 44.1094C53.7728 44.1419 54.082 44.1663 54.375 44.1826C54.668 44.1989 54.9772 44.207 55.3027 44.207C55.5957 44.207 55.8887 44.1989 56.1816 44.1826C56.4746 44.1663 56.7676 44.1419 57.0605 44.1094C57.0931 44.6302 57.1175 45.1592 57.1338 45.6963C57.1501 46.2334 57.1582 46.7624 57.1582 47.2832C57.1908 47.7389 57.207 48.2109 57.207 48.6992C57.207 49.1875 57.207 49.6758 57.207 50.1641C57.207 51.2708 57.1745 52.6543 57.1094 54.3145C57.0443 56.0072 56.9385 57.7243 56.792 59.4658C56.6455 61.2074 56.4583 62.8594 56.2305 64.4219C55.9701 65.9518 55.6445 67.14 55.2539 67.9863ZM62.4316 44.6953C62.2363 45.151 61.9271 45.5254 61.5039 45.8184C61.0807 46.1113 60.6087 46.2578 60.0879 46.2578C59.9251 46.2578 59.7624 46.2578 59.5996 46.2578C59.4368 46.2578 59.2741 46.2578 59.1113 46.2578C59.0788 45.6719 59.0462 45.1022 59.0137 44.5488C58.9811 43.9954 58.9486 43.4421 58.916 42.8887C58.8184 41.2611 58.68 39.7637 58.501 38.3965C58.3219 37.0293 58.1185 35.8249 57.8906 34.7832C59.8763 36.3783 61.2679 38.0547 62.0654 39.8125C62.863 41.5703 62.985 43.1979 62.4316 44.6953ZM22.0508 47.2344C22.0508 47.4948 21.9531 47.7227 21.7578 47.918C21.5625 48.1133 21.3346 48.2109 21.0742 48.2109C20.8138 48.2109 20.5859 48.1133 20.3906 47.918C20.1953 47.7227 20.0977 47.4948 20.0977 47.2344C20.0977 46.974 20.1953 46.7461 20.3906 46.5508C20.5859 46.3555 20.8138 46.2578 21.0742 46.2578C21.3346 46.2578 21.5625 46.3555 21.7578 46.5508C21.9531 46.7461 22.0508 46.974 22.0508 47.2344Z" fill="#39C0FA"/>
</svg>
