<svg width="124" height="32" viewBox="0 0 124 32" fill="none" xmlns="http://www.w3.org/2000/svg">
<path d="M56.6291 24.6335C54.8408 24.6335 53.2761 24.2294 51.9348 23.4212C50.5936 22.613 49.5504 21.5177 48.8053 20.1353C48.0601 18.7528 47.6876 17.2215 47.6876 15.5414C47.6876 13.7974 48.0601 12.2555 48.8053 10.9156C49.5717 9.55441 50.6042 8.48037 51.9029 7.69345C53.2228 6.90653 54.6918 6.51307 56.3098 6.51307C57.6723 6.51307 58.8645 6.73639 59.8864 7.18302C60.9296 7.62965 61.8131 8.24642 62.537 9.03334C63.2608 9.82026 63.8143 10.7242 64.1976 11.745C64.5808 12.7446 64.7724 13.8293 64.7724 14.999C64.7724 15.2968 64.7511 15.6052 64.7085 15.9242C64.7061 15.9602 64.7033 15.9956 64.7001 16.0305C64.6593 16.4734 64.2525 16.7536 63.8073 16.7536H52.1952C51.6105 16.7536 51.1365 16.2801 51.1365 15.696V14.6211C51.1365 14.037 51.6105 13.5634 52.1952 13.5634H60.865C61.2905 13.5634 61.4723 14.1037 61.1332 14.3605C60.8083 14.6066 60.3226 14.3149 60.3179 13.9076C60.3119 13.3839 60.2213 12.897 60.0461 12.4469C59.7693 11.6812 59.301 11.0751 58.641 10.6284C58.0023 10.1818 57.2253 9.9585 56.3098 9.9585C55.4369 9.9585 54.6599 10.1818 53.9786 10.6284C53.2973 11.0538 52.7758 11.6918 52.4138 12.5426C52.0809 13.3534 51.9513 14.337 52.0252 15.4933C52.0286 15.5465 52.0283 15.6 52.0246 15.6532C51.9526 16.6841 52.0929 17.6039 52.4458 18.4126C52.829 19.2207 53.3825 19.8482 54.1063 20.2948C54.8515 20.7414 55.7031 20.9647 56.6611 20.9647C57.6191 20.9647 58.4281 20.7627 59.0881 20.3586C59.4732 20.1301 59.8108 19.8575 60.1007 19.5406C60.4795 19.1266 61.0791 18.9248 61.5832 19.1719L63.1807 19.9548C63.6811 20.2 63.9139 20.7979 63.6154 21.2681C63.3111 21.7475 62.9303 22.1887 62.4731 22.5917C61.7493 23.2298 60.887 23.7296 59.8864 24.0911C58.9071 24.4527 57.8214 24.6335 56.6291 24.6335Z" fill="#082C54"/>
<path d="M74.5859 24.6335C72.7976 24.6335 71.2328 24.2294 69.8916 23.4212C68.5503 22.613 67.5072 21.5177 66.762 20.1353C66.0169 18.7528 65.6443 17.2215 65.6443 15.5414C65.6443 13.7974 66.0169 12.2555 66.762 10.9156C67.5284 9.55441 68.561 8.48037 69.8596 7.69345C71.1796 6.90653 72.6486 6.51307 74.2666 6.51307C75.6291 6.51307 76.8213 6.73639 77.8432 7.18302C78.8864 7.62965 79.7699 8.24642 80.4937 9.03334C81.2176 9.82026 81.7711 10.7242 82.1543 11.745C82.5375 12.7446 82.7291 13.8293 82.7291 14.999C82.7291 15.2968 82.7078 15.6052 82.6653 15.9242C82.6629 15.9602 82.6601 15.9956 82.6568 16.0305C82.6161 16.4734 82.2092 16.7536 81.764 16.7536H70.152C69.5672 16.7536 69.0932 16.2801 69.0932 15.696V14.6211C69.0932 14.037 69.5672 13.5634 70.152 13.5634H78.8218C79.2473 13.5634 79.4291 14.1037 79.09 14.3605C78.765 14.6066 78.2793 14.3149 78.2747 13.9076C78.2687 13.3839 78.1781 12.897 78.0029 12.4469C77.7261 11.6812 77.2577 11.0751 76.5978 10.6284C75.9591 10.1818 75.182 9.9585 74.2666 9.9585C73.3937 9.9585 72.6166 10.1818 71.9354 10.6284C71.2541 11.0538 70.7325 11.6918 70.3706 12.5426C70.0376 13.3534 69.9081 14.337 69.982 15.4933C69.9854 15.5465 69.9851 15.6 69.9814 15.6532C69.9093 16.6841 70.0497 17.6039 70.4025 18.4126C70.7857 19.2207 71.3393 19.8482 72.0631 20.2948C72.8082 20.7414 73.6598 20.9647 74.6178 20.9647C75.5759 20.9647 76.3849 20.7627 77.0448 20.3586C77.43 20.1301 77.7675 19.8575 78.0574 19.5406C78.4363 19.1266 79.0358 18.9248 79.54 19.1719L81.1375 19.9548C81.6378 20.2 81.8707 20.7979 81.5722 21.2681C81.2679 21.7475 80.8871 22.1887 80.4299 22.5917C79.706 23.2298 78.8438 23.7296 77.8432 24.0911C76.8639 24.4527 75.7781 24.6335 74.5859 24.6335Z" fill="#082C54"/>
<path d="M85.3624 24.81C84.7776 24.81 84.3036 24.3365 84.3036 23.7524V8.51297C84.3036 7.92883 84.7776 7.4553 85.3624 7.4553H87.5545C87.9284 7.4553 88.2315 7.7581 88.2315 8.13163V10.2531C88.2315 10.4119 88.0185 10.4645 87.9445 10.324C87.924 10.285 87.9213 10.239 87.9377 10.1982C88.3442 9.18802 88.9957 8.4226 89.8921 7.90193C90.8289 7.34896 91.9146 7.07247 93.1494 7.07247C94.4268 7.07247 95.5551 7.34896 96.5344 7.90193C97.535 8.4549 98.3121 9.23118 98.8656 10.2308C99.4192 11.2091 99.6959 12.347 99.6959 13.6443V23.7524C99.6959 24.3365 99.2219 24.81 98.6372 24.81H96.5713C95.9866 24.81 95.5125 24.3365 95.5125 23.7524V14.6333C95.5125 13.8676 95.3635 13.2083 95.0655 12.6553C94.7674 12.1024 94.3523 11.677 93.82 11.3793C93.3091 11.0602 92.7023 10.9007 91.9998 10.9007C91.3185 10.9007 90.7118 11.0602 90.1795 11.3793C89.6473 11.677 89.2322 12.1024 88.9341 12.6553C88.636 13.2083 88.487 13.8676 88.487 14.6333V23.7524C88.487 24.3365 88.013 24.81 87.4283 24.81H85.3624Z" fill="#082C54"/>
<path d="M102.695 24.81C102.111 24.81 101.637 24.3365 101.637 23.7524V1.71783C101.637 1.13369 102.111 0.660156 102.695 0.660156H104.761C105.346 0.660156 105.82 1.13369 105.82 1.71783V23.7524C105.82 24.3365 105.346 24.81 104.761 24.81H102.695Z" fill="#082C54"/>
<path d="M110.193 31.8606C109.724 31.8606 109.267 31.818 108.819 31.7329C108.616 31.7039 108.422 31.6639 108.236 31.6129C107.84 31.5043 107.606 31.1205 107.606 30.7108V28.8803C107.606 28.3649 108.087 27.9795 108.596 28.0642C109 28.128 109.373 28.1599 109.714 28.1599C110.672 28.1599 111.364 27.9366 111.789 27.49C112.236 27.0433 112.63 26.4585 112.971 25.7354L113.421 24.686C113.571 24.3356 114.095 24.448 114.088 24.8291C114.081 25.2087 113.557 25.3036 113.417 24.9506L107.061 8.90225C106.786 8.20804 107.298 7.45545 108.046 7.45545H110.258C110.699 7.45545 111.094 7.7287 111.249 8.14126L116.011 20.8088C116.147 21.1703 115.879 21.5562 115.493 21.5562C115.107 21.5562 114.839 21.1712 114.974 20.8098L119.707 8.14322C119.862 7.72964 120.257 7.45545 120.699 7.45545H122.942C123.689 7.45545 124.201 8.20804 123.926 8.90225L116.931 26.5648C116.484 27.692 115.941 28.6491 115.302 29.436C114.663 30.2229 113.918 30.8184 113.067 31.2225C112.236 31.6479 111.278 31.8606 110.193 31.8606Z" fill="#082C54"/>
<path d="M49.3204 14.6196C49.3204 14.0355 49.7945 13.562 50.3792 13.562H80.3125C80.8972 13.562 81.3712 14.0355 81.3712 14.6196V15.6773C81.3712 16.2614 80.8972 16.735 80.3125 16.735H50.3792C49.7945 16.735 49.3204 16.2614 49.3204 15.6773V14.6196Z" fill="#082C54"/>
<path fill-rule="evenodd" clip-rule="evenodd" d="M32.3038 31.2813L30.5935 30.0098L28.9138 31.2586C28.6801 31.0646 28.5312 30.772 28.5312 30.4447V7.7672C28.5312 7.18306 29.0053 6.70953 29.59 6.70953H31.8554C32.1888 6.70953 32.4592 6.97958 32.4592 7.3127V8.75765C33.0042 8.07707 33.6854 7.53261 34.5029 7.12426C35.5248 6.59256 36.7064 6.32671 38.0476 6.32671C39.6869 6.32671 41.1666 6.7308 42.4865 7.53899C43.8064 8.34717 44.8496 9.43184 45.6161 10.793C46.4038 12.1542 46.7976 13.6855 46.7976 15.3869C46.7976 17.0671 46.4144 18.5984 45.648 19.9808C44.8816 21.3632 43.8384 22.4585 42.5184 23.2667C41.1985 24.0536 39.6976 24.4471 38.0157 24.4471C36.7596 24.4471 35.5994 24.2025 34.5349 23.7134C33.8313 23.3691 33.2245 22.9281 32.7146 22.3903V30.4447C32.7146 30.785 32.5537 31.0878 32.3038 31.2813ZM40.0914 19.9489C39.3463 20.3955 38.4947 20.6188 37.5367 20.6188C36.6213 20.6188 35.791 20.3955 35.0458 19.9489C34.322 19.5023 33.7472 18.8855 33.3214 18.0986C32.9169 17.3117 32.7146 16.4078 32.7146 15.3869C32.7146 14.3873 32.9169 13.494 33.3214 12.7071C33.7472 11.8989 34.322 11.2715 35.0458 10.8249C35.791 10.3783 36.6213 10.155 37.5367 10.155C38.4947 10.155 39.3463 10.3889 40.0914 10.8568C40.8366 11.3034 41.4114 11.9202 41.8159 12.7071C42.2417 13.4728 42.4546 14.366 42.4546 15.3869C42.4546 16.4078 42.2417 17.3117 41.8159 18.0986C41.4114 18.8855 40.8366 19.5023 40.0914 19.9489Z" fill="#082C54"/>
<path fill-rule="evenodd" clip-rule="evenodd" d="M12.7165 23.4515C12.1299 23.4024 14.8692 24.1268 16.5193 24.5485V31.8649L11.9823 29.1956L7.23431 31.8649L7.23431 22.9668C2.98002 21.1375 0 16.9003 0 11.9651C0 5.35696 5.34293 0 11.9338 0C18.5246 0 23.8675 5.35696 23.8675 11.9651C23.8675 17.0675 20.32 22.4288 15.0516 23.2148C14.081 23.3597 13.0874 23.4824 12.7165 23.4515ZM12.5607 6.41042C12.3334 5.75672 11.4091 5.75672 11.1818 6.41042L10.1899 9.26303C10.0878 9.55656 9.81119 9.7533 9.50047 9.7533H6.40199C5.68291 9.7533 5.39707 10.6836 5.99203 11.0875L8.41145 12.7301C8.68484 12.9157 8.79948 13.2618 8.69094 13.574L7.747 16.2887C7.51612 16.9527 8.26484 17.5274 8.8464 17.1326L11.4613 15.3573C11.7088 15.1893 12.0337 15.1893 12.2812 15.3573L14.8961 17.1326C15.4777 17.5274 16.2264 16.9527 15.9955 16.2887L15.0516 13.574C14.943 13.2618 15.0577 12.9157 15.3311 12.7301L17.7505 11.0875C18.3454 10.6836 18.0596 9.7533 17.3405 9.7533H14.242C13.9313 9.7533 13.6547 9.55656 13.5526 9.26303L12.5607 6.41042Z" fill="#E6883B"/>
</svg>
