<svg width="179" height="46" viewBox="0 0 179 46" fill="none" xmlns="http://www.w3.org/2000/svg">
<path d="M81.7475 35.557C79.1659 35.557 76.907 34.9736 74.9708 33.8069C73.0346 32.6402 71.5287 31.059 70.453 29.0634C69.3773 27.0677 68.8395 24.8572 68.8395 22.4317C68.8395 19.9141 69.3773 17.6881 70.453 15.7539C71.5594 13.7889 73.05 12.2384 74.9247 11.1024C76.8302 9.96646 78.9508 9.39846 81.2865 9.39846C83.2535 9.39846 84.9745 9.72084 86.4497 10.3656C87.9557 11.0103 89.2311 11.9007 90.276 13.0367C91.321 14.1727 92.12 15.4776 92.6732 16.9513C93.2264 18.3943 93.503 19.9601 93.503 21.6487C93.503 22.0786 93.4723 22.5238 93.4108 22.9843C93.4074 23.0362 93.4033 23.0874 93.3987 23.1377C93.3398 23.7771 92.7525 24.1817 92.1098 24.1817H75.3467C74.5026 24.1817 73.8183 23.4981 73.8183 22.6549V21.1032C73.8183 20.2599 74.5026 19.5763 75.3467 19.5763H87.8624C88.4767 19.5763 88.7391 20.3562 88.2496 20.7269C87.7805 21.0822 87.0793 20.6612 87.0726 20.0731C87.064 19.3172 86.9332 18.6143 86.6802 17.9644C86.2807 16.8592 85.6046 15.9841 84.6518 15.3394C83.7298 14.6946 82.6081 14.3723 81.2865 14.3723C80.0265 14.3723 78.9047 14.6946 77.9212 15.3394C76.9377 15.9534 76.1848 16.8745 75.6623 18.1026C75.1816 19.2731 74.9946 20.693 75.1013 22.3622C75.1062 22.439 75.1058 22.5163 75.1005 22.5931C74.9964 24.0814 75.1991 25.4092 75.7084 26.5765C76.2616 27.7432 77.0607 28.6489 78.1056 29.2937C79.1813 29.9384 80.4106 30.2608 81.7936 30.2608C83.1766 30.2608 84.3445 29.9691 85.2972 29.3858C85.8532 29.056 86.3405 28.6624 86.759 28.205C87.3059 27.6072 88.1714 27.316 88.8992 27.6726L91.2053 28.8028C91.9276 29.1568 92.2638 30.02 91.8329 30.6987C91.3936 31.3908 90.8439 32.0277 90.1838 32.6095C89.1389 33.5306 87.8942 34.2521 86.4497 34.774C85.036 35.296 83.4686 35.557 81.7475 35.557Z" fill="white"/>
<path d="M107.67 35.557C105.088 35.557 102.829 34.9736 100.893 33.8069C98.9569 32.6402 97.451 31.059 96.3753 29.0634C95.2996 27.0677 94.7618 24.8572 94.7618 22.4317C94.7618 19.9141 95.2996 17.6881 96.3753 15.7539C97.4817 13.7889 98.9723 12.2384 100.847 11.1024C102.752 9.96646 104.873 9.39846 107.209 9.39846C109.176 9.39846 110.897 9.72084 112.372 10.3656C113.878 11.0103 115.153 11.9007 116.198 13.0367C117.243 14.1727 118.042 15.4776 118.596 16.9513C119.149 18.3943 119.425 19.9601 119.425 21.6487C119.425 22.0786 119.395 22.5238 119.333 22.9843C119.33 23.0362 119.326 23.0874 119.321 23.1377C119.262 23.7771 118.675 24.1817 118.032 24.1817H101.269C100.425 24.1817 99.7406 23.4981 99.7406 22.6549V21.1032C99.7406 20.2599 100.425 19.5763 101.269 19.5763H113.785C114.399 19.5763 114.661 20.3562 114.172 20.7269C113.703 21.0822 113.002 20.6612 112.995 20.0731C112.986 19.3172 112.855 18.6143 112.603 17.9644C112.203 16.8592 111.527 15.9841 110.574 15.3394C109.652 14.6946 108.53 14.3723 107.209 14.3723C105.949 14.3723 104.827 14.6946 103.843 15.3394C102.86 15.9534 102.107 16.8745 101.585 18.1026C101.104 19.2731 100.917 20.693 101.024 22.3622C101.028 22.439 101.028 22.5163 101.023 22.5931C100.919 24.0814 101.121 25.4092 101.631 26.5765C102.184 27.7432 102.983 28.6489 104.028 29.2937C105.104 29.9384 106.333 30.2608 107.716 30.2608C109.099 30.2608 110.267 29.9691 111.22 29.3858C111.776 29.056 112.263 28.6624 112.681 28.205C113.228 27.6072 114.094 27.316 114.821 27.6726L117.128 28.8028C117.85 29.1568 118.186 30.02 117.755 30.6987C117.316 31.3908 116.766 32.0277 116.106 32.6095C115.061 33.5306 113.816 34.2521 112.372 34.774C110.958 35.296 109.391 35.557 107.67 35.557Z" fill="white"/>
<path d="M123.227 35.8119C122.383 35.8119 121.698 35.1283 121.698 34.285V12.2855C121.698 11.4422 122.383 10.7586 123.227 10.7586H126.391C126.931 10.7586 127.369 11.1958 127.369 11.735V14.7976C127.369 15.0268 127.061 15.1027 126.954 14.8998C126.925 14.8436 126.921 14.7772 126.944 14.7183C127.531 13.26 128.472 12.155 129.766 11.4034C131.118 10.6051 132.685 10.206 134.468 10.206C136.312 10.206 137.941 10.6051 139.355 11.4034C140.799 12.2017 141.921 13.3223 142.72 14.7653C143.519 16.1776 143.918 17.8202 143.918 19.6931V34.285C143.918 35.1283 143.234 35.8119 142.39 35.8119H139.408C138.564 35.8119 137.879 35.1283 137.879 34.285V21.1207C137.879 20.0154 137.664 19.0637 137.234 18.2654C136.804 17.4671 136.204 16.8531 135.436 16.4232C134.698 15.9627 133.823 15.7324 132.808 15.7324C131.825 15.7324 130.949 15.9627 130.181 16.4232C129.412 16.8531 128.813 17.4671 128.383 18.2654C127.953 19.0637 127.737 20.0154 127.737 21.1207V34.285C127.737 35.1283 127.053 35.8119 126.209 35.8119H123.227Z" fill="white"/>
<path d="M148.249 35.8119C147.405 35.8119 146.72 35.1283 146.72 34.285V2.47607C146.72 1.63281 147.405 0.949219 148.249 0.949219H151.231C152.075 0.949219 152.759 1.63281 152.759 2.47607V34.285C152.759 35.1283 152.075 35.8119 151.231 35.8119H148.249Z" fill="white"/>
<path d="M159.071 45.9899C158.395 45.9899 157.735 45.9285 157.089 45.8057C156.796 45.7638 156.515 45.7061 156.247 45.6325C155.676 45.4757 155.337 44.9216 155.337 44.3302V41.6876C155.337 40.9436 156.032 40.3872 156.766 40.5096C157.35 40.6017 157.888 40.6477 158.38 40.6477C159.763 40.6477 160.762 40.3253 161.376 39.6806C162.022 39.0358 162.59 38.1915 163.082 37.1476L163.732 35.6328C163.949 35.127 164.705 35.2892 164.695 35.8394C164.685 36.3874 163.928 36.5244 163.727 36.0148L154.551 12.8475C154.154 11.8453 154.893 10.7589 155.972 10.7589H159.165C159.802 10.7589 160.372 11.1533 160.596 11.7489L167.471 30.0356C167.667 30.5576 167.281 31.1146 166.723 31.1146C166.165 31.1146 165.779 30.5588 165.974 30.0371L172.807 11.7517C173.03 11.1547 173.601 10.7589 174.239 10.7589H177.476C178.555 10.7589 179.294 11.8453 178.897 12.8475L168.799 38.345C168.153 39.9723 167.369 41.3539 166.447 42.4899C165.525 43.6259 164.45 44.4855 163.22 45.0689C162.022 45.6829 160.639 45.9899 159.071 45.9899Z" fill="white"/>
<path d="M71.1967 21.101C71.1967 20.2578 71.881 19.5742 72.7251 19.5742H115.937C116.781 19.5742 117.465 20.2578 117.465 21.101V22.6279C117.465 23.4711 116.781 24.1547 115.937 24.1547H72.7251C71.881 24.1547 71.1967 23.4711 71.1967 22.6279V21.101Z" fill="white"/>
<path fill-rule="evenodd" clip-rule="evenodd" d="M46.6315 45.1537L44.1627 43.3183L41.7378 45.121C41.4004 44.8409 41.1855 44.4185 41.1855 43.946V11.2089C41.1855 10.3657 41.8698 9.68207 42.7139 9.68207H45.9842C46.4656 9.68207 46.8559 10.0719 46.8559 10.5528V12.6387C47.6426 11.6562 48.6261 10.8703 49.8063 10.2808C51.2815 9.5132 52.9872 9.12942 54.9234 9.12942C57.2898 9.12942 59.4258 9.71277 61.3313 10.8795C63.2367 12.0462 64.7427 13.612 65.8491 15.5769C66.9862 17.5419 67.5548 19.7525 67.5548 22.2087C67.5548 24.6342 67.0016 26.8447 65.8952 28.8404C64.7888 30.8361 63.2828 32.4172 61.3774 33.5839C59.4719 34.7199 57.3052 35.2879 54.8773 35.2879C53.064 35.2879 51.389 34.9348 49.8524 34.2287C48.8366 33.7317 47.9607 33.095 47.2247 32.3187V43.946C47.2247 44.4373 46.9924 44.8744 46.6315 45.1537ZM57.8738 28.7943C56.7981 29.4391 55.5688 29.7615 54.1858 29.7615C52.8642 29.7615 51.6656 29.4391 50.59 28.7943C49.545 28.1496 48.7152 27.2592 48.1006 26.1232C47.5166 24.9872 47.2247 23.6824 47.2247 22.2087C47.2247 20.7657 47.5166 19.4762 48.1006 18.3402C48.7152 17.1735 49.545 16.2677 50.59 15.623C51.6656 14.9782 52.8642 14.6559 54.1858 14.6559C55.5688 14.6559 56.7981 14.9936 57.8738 15.669C58.9494 16.3138 59.7792 17.2042 60.3632 18.3402C60.9778 19.4454 61.2852 20.735 61.2852 22.2087C61.2852 23.6824 60.9778 24.9872 60.3632 26.1232C59.7792 27.2592 58.9494 28.1496 57.8738 28.7943Z" fill="white"/>
<path fill-rule="evenodd" clip-rule="evenodd" d="M18.3575 33.8544C17.5106 33.7836 21.465 34.8294 23.8472 35.4381V46L17.2976 42.1466L10.4434 46L10.4434 33.1547C4.30195 30.514 0 24.3971 0 17.2728C0 7.73328 7.71302 0 17.2275 0C26.742 0 34.455 7.73328 34.455 17.2728C34.455 24.6385 29.3338 32.3781 21.7284 33.5128C20.3272 33.7219 18.8928 33.8991 18.3575 33.8544ZM18.1326 9.25405C17.8044 8.31037 16.4701 8.31037 16.142 9.25405L14.7101 13.3721C14.5628 13.7958 14.1634 14.0798 13.7148 14.0798H9.24187C8.20381 14.0798 7.79118 15.4227 8.65007 16.0058L12.1427 18.3771C12.5374 18.645 12.7029 19.1447 12.5462 19.5953L11.1835 23.5143C10.8502 24.4728 11.9311 25.3025 12.7706 24.7325L16.5455 22.1697C16.9027 21.9272 17.3718 21.9272 17.7291 22.1697L21.5039 24.7325C22.3435 25.3025 23.4243 24.4728 23.091 23.5143L21.7284 19.5953C21.5717 19.1447 21.7372 18.645 22.1318 18.3771L25.6245 16.0058C26.4834 15.4227 26.0707 14.0798 25.0327 14.0798H20.5597C20.1112 14.0798 19.7118 13.7958 19.5644 13.3721L18.1326 9.25405Z" fill="#E6883B"/>
</svg>
